<?xml version="1.0" encoding="UTF-8"?>
<!-- Generator: visioncortex VTracer 0.6.12 -->
<svg version="1.1" xmlns="http://www.w3.org/2000/svg" width="456" height="456" viewBox="0 0 1113 1149" preserveAspectRatio="xMidYMid meet" xmlns:c2pa="http://c2pa.org/manifest">
	<metadata>
		<c2pa:manifest>AAAWgmp1bWIAAAAeanVtZGMycGEAEQAQgAAAqgA4m3EDYzJwYQAAABZcanVtYgAAAEdqdW1kYzJtYQARABCAAACqADibcQN1cm46YzJwYTpkN2RkMjQyZi04NTJjLTRiNWItOTk4Zi0xMjgwNjAxNmVhNzUAAAADl2p1bWIAAAApanVtZGMyYXMAEQAQgAAAqgA4m3EDYzJwYS5hc3NlcnRpb25zAAAAALxqdW1iAAAARGp1bWRjYm9yABEAEIAAAKoAOJtxE2MycGEuaW5ncmVkaWVudC52MwAAAAAYYzJzaEAcj2kutp8luJ0qtA590qEAAABwY2JvcqNpZGM6Zm9ybWF0bWltYWdlL3N2Zyt4bWxqaW5zdGFuY2VJRHgseG1wOmlpZDpkMzc0NzIxNS1hODlmLTQ0MDgtOTU2OS0zODY2MTZiNjI1NTJscmVsYXRpb25zaGlwaHBhcmVudE9mAAAB4mp1bWIAAABBanVtZGNib3IAEQAQgAAAqgA4m3ETYzJwYS5hY3Rpb25zLnYyAAAAABhjMnNoLBkZQoLqN5mvqR5KfVfwYgAAAZljYm9yomdhY3Rpb25zgqJmYWN0aW9ua2MycGEub3BlbmVkanBhcmFtZXRlcnOha2luZ3JlZGllbnRzgaJjdXJseC1zZWxmI2p1bWJmPWMycGEuYXNzZXJ0aW9ucy9jMnBhLmluZ3JlZGllbnQudjNkaGFzaFgg0EklrpMyXBS+fceTZiB1iHojdp4W/ylsHfBIhl89c9mkZmFjdGlvbngdY29tLmFudGhyb3BpYy5jbGF1ZGUucHJvdmlkZWRqcGFyYW1ldGVyc6F4H2NvbS5hbnRocm9waWMub3JpZ2luLWNvbmZpZGVuY2VndW5rbm93bmtkZXNjcmlwdGlvbnhmQ2xhdWRlIHByb3ZpZGVkIHRoaXMgZmlsZSBhdCB0aGUgcmVxdWVzdCBvZiBhIHVzZXIgYW5kIG1heSBoYXZlIGNyZWF0ZWQgb3IgbW9kaWZpZWQgdGhlIGZpbGUgY29udGVudHMubXNvZnR3YXJlQWdlbnShZG5hbWVmQ2xhdWRlcmFsbEFjdGlvbnNJbmNsdWRlZPUAAADIanVtYgAAAEBqdW1kY2JvcgARABCAAACqADibcRNjMnBhLmhhc2guZGF0YQAAAAAYYzJzaByntukedq4AsxEgI92iTZYAAACAY2JvcqVjYWxnZnNoYTI1NmNwYWRMAAAAAAAAAAAAAAAAZGhhc2hYIDZhxeLmqcitUPMY8GSwV0za0X18Rf+AETX756P37utAZG5hbWVuanVtYmYgbWFuaWZlc3RqZXhjbHVzaW9uc4GiZXN0YXJ0GQEhZmxlbmd0aBkeBAAAAj5qdW1iAAAAJ2p1bWRjMmNsABEAEIAAAKoAOJtxA2MycGEuY2xhaW0udjIAAAACD2Nib3KlY2FsZ2ZzaGEyNTZpc2lnbmF0dXJleE1zZWxmI2p1bWJmPS9jMnBhL3VybjpjMnBhOmQ3ZGQyNDJmLTg1MmMtNGI1Yi05OThmLTEyODA2MDE2ZWE3NS9jMnBhLnNpZ25hdHVyZWppbnN0YW5jZUlEeCx4bXA6aWlkOjc5YTFiYjVlLTViYWYtNGQwMi04Yzk2LWFmYmY0Y2VjZGE2OHJjcmVhdGVkX2Fzc2VydGlvbnODomN1cmx4LXNlbGYjanVtYmY9YzJwYS5hc3NlcnRpb25zL2MycGEuaW5ncmVkaWVudC52M2RoYXNoWCDQSSWukzJcFL59x5NmIHWIeiN2nhb/KWwd8EiGXz1z2aJjdXJseCpzZWxmI2p1bWJmPWMycGEuYXNzZXJ0aW9ucy9jMnBhLmFjdGlvbnMudjJkaGFzaFggLfMD9WDv1b2blH8cy0h+SVSkKaf6v/urOEmbQfUpVGqiY3VybHgpc2VsZiNqdW1iZj1jMnBhLmFzc2VydGlvbnMvYzJwYS5oYXNoLmRhdGFkaGFzaFggkrUboPnnrFr73OhlKRPr0uzOgbhEiNaMI4oDuO5r4Hl0Y2xhaW1fZ2VuZXJhdG9yX2luZm+jZG5hbWVvQW50aHJvcGljIEZpbGVzZ3ZlcnNpb25lMS4wLjBrc3BlY1ZlcnNpb25lMi40LjAAABA4anVtYgAAAChqdW1kYzJjcwARABCAAACqADibcQNjMnBhLnNpZ25hdHVyZQAAABAIY2JvctKEWQISogEmGCFZAgowggIGMIIBjaADAgECAhRA5aAK7sI50L64g/oGQgU9Z1UTADAKBggqhkjOPQQDAzBJMRcwFQYDVQQKEw5BbnRocm9waWMsIFBCQzEuMCwGA1UEAxMlQW50aHJvcGljIENvbnRlbnQgQ3JlZGVudGlhbHMgUm9vdCBDQTAeFw0yNjA4MDcxODQzNTZaFw0yODA4MDYxOTQzNTZaMEQxFzAVBgNVBAoTDkFudGhyb3BpYywgUEJDMSkwJwYDVQQDEyBBbnRocm9waWMgQ2xhdWRlIENvbnRlbnQgU2lnbmluZzBZMBMGByqGSM49AgEGCCqGSM49AwEHA0IABJh6CmvLUBgFFNU0vUKlOVtE6djd17L5SuwX0LemFisBM3dkd/3cyjxFA3Qo5S46fX0/ihY0VZ7mfb9KF703t5OjWDBWMA4GA1UdDwEB/wQEAwIHgDAVBgNVHSUEDjAMBgorBgEEAYPoXgIBMAwGA1UdEwEB/wQCMAAwHwYDVR0jBBgwFoAUzlHiBIFOZFsj+OPEz5o+nMHXXMIwCgYIKoZIzj0EAwMDZwAwZAIwMXMdFJ4BetLLVY7ORuE9noqbbAZOZn/aArXyTwFAZfKrPzxF2vPoJNf1+UCdg1XGAjBwX1zd9WGqYkqmL5SFqw1QySjr1zJfpJM9+1rdDwSPLMOPOjKuiXjoU/pUUeG9RwmhY3BhZFkNngAAAAAAAAAAAAAAAAAAAAAAAAAAAAAAAAAAAAAAAAAAAAAAAAAAAAAAAAAAAAAAAAAAAAAAAAAAAAAAAAAAAAAAAAAAAAAAAAAAAAAAAAAAAAAAAAAAAAAAAAAAAAAAAAAAAAAAAAAAAAAAAAAAAAAAAAAAAAAAAAAAAAAAAAAAAAAAAAAAAAAAAAAAAAAAAAAAAAAAAAAAAAAAAAAAAAAAAAAAAAAAAAAAAAAAAAAAAAAAAAAAAAAAAAAAAAAAAAAAAAAAAAAAAAAAAAAAAAAAAAAAAAAAAAAAAAAAAAAAAAAAAAAAAAAAAAAAAAAAAAAAAAAAAAAAAAAAAAAAAAAAAAAAAAAAAAAAAAAAAAAAAAAAAAAAAAAAAAAAAAAAAAAAAAAAAAAAAAAAAAAAAAAAAAAAAAAAAAAAAAAAAAAAAAAAAAAAAAAAAAAAAAAAAAAAAAAAAAAAAAAAAAAAAAAAAAAAAAAAAAAAAAAAAAAAAAAAAAAAAAAAAAAAAAAAAAAAAAAAAAAAAAAAAAAAAAAAAAAAAAAAAAAAAAAAAAAAAAAAAAAAAAAAAAAAAAAAAAAAAAAAAAAAAAAAAAAAAAAAAAAAAAAAAAAAAAAAAAAAAAAAAAAAAAAAAAAAAAAAAAAAAAAAAAAAAAAAAAAAAAAAAAAAAAAAAAAAAAAAAAAAAAAAAAAAAAAAAAAAAAAAAAAAAAAAAAAAAAAAAAAAAAAAAAAAAAAAAAAAAAAAAAAAAAAAAAAAAAAAAAAAAAAAAAAAAAAAAAAAAAAAAAAAAAAAAAAAAAAAAAAAAAAAAAAAAAAAAAAAAAAAAAAAAAAAAAAAAAAAAAAAAAAAAAAAAAAAAAAAAAAAAAAAAAAAAAAAAAAAAAAAAAAAAAAAAAAAAAAAAAAAAAAAAAAAAAAAAAAAAAAAAAAAAAAAAAAAAAAAAAAAAAAAAAAAAAAAAAAAAAAAAAAAAAAAAAAAAAAAAAAAAAAAAAAAAAAAAAAAAAAAAAAAAAAAAAAAAAAAAAAAAAAAAAAAAAAAAAAAAAAAAAAAAAAAAAAAAAAAAAAAAAAAAAAAAAAAAAAAAAAAAAAAAAAAAAAAAAAAAAAAAAAAAAAAAAAAAAAAAAAAAAAAAAAAAAAAAAAAAAAAAAAAAAAAAAAAAAAAAAAAAAAAAAAAAAAAAAAAAAAAAAAAAAAAAAAAAAAAAAAAAAAAAAAAAAAAAAAAAAAAAAAAAAAAAAAAAAAAAAAAAAAAAAAAAAAAAAAAAAAAAAAAAAAAAAAAAAAAAAAAAAAAAAAAAAAAAAAAAAAAAAAAAAAAAAAAAAAAAAAAAAAAAAAAAAAAAAAAAAAAAAAAAAAAAAAAAAAAAAAAAAAAAAAAAAAAAAAAAAAAAAAAAAAAAAAAAAAAAAAAAAAAAAAAAAAAAAAAAAAAAAAAAAAAAAAAAAAAAAAAAAAAAAAAAAAAAAAAAAAAAAAAAAAAAAAAAAAAAAAAAAAAAAAAAAAAAAAAAAAAAAAAAAAAAAAAAAAAAAAAAAAAAAAAAAAAAAAAAAAAAAAAAAAAAAAAAAAAAAAAAAAAAAAAAAAAAAAAAAAAAAAAAAAAAAAAAAAAAAAAAAAAAAAAAAAAAAAAAAAAAAAAAAAAAAAAAAAAAAAAAAAAAAAAAAAAAAAAAAAAAAAAAAAAAAAAAAAAAAAAAAAAAAAAAAAAAAAAAAAAAAAAAAAAAAAAAAAAAAAAAAAAAAAAAAAAAAAAAAAAAAAAAAAAAAAAAAAAAAAAAAAAAAAAAAAAAAAAAAAAAAAAAAAAAAAAAAAAAAAAAAAAAAAAAAAAAAAAAAAAAAAAAAAAAAAAAAAAAAAAAAAAAAAAAAAAAAAAAAAAAAAAAAAAAAAAAAAAAAAAAAAAAAAAAAAAAAAAAAAAAAAAAAAAAAAAAAAAAAAAAAAAAAAAAAAAAAAAAAAAAAAAAAAAAAAAAAAAAAAAAAAAAAAAAAAAAAAAAAAAAAAAAAAAAAAAAAAAAAAAAAAAAAAAAAAAAAAAAAAAAAAAAAAAAAAAAAAAAAAAAAAAAAAAAAAAAAAAAAAAAAAAAAAAAAAAAAAAAAAAAAAAAAAAAAAAAAAAAAAAAAAAAAAAAAAAAAAAAAAAAAAAAAAAAAAAAAAAAAAAAAAAAAAAAAAAAAAAAAAAAAAAAAAAAAAAAAAAAAAAAAAAAAAAAAAAAAAAAAAAAAAAAAAAAAAAAAAAAAAAAAAAAAAAAAAAAAAAAAAAAAAAAAAAAAAAAAAAAAAAAAAAAAAAAAAAAAAAAAAAAAAAAAAAAAAAAAAAAAAAAAAAAAAAAAAAAAAAAAAAAAAAAAAAAAAAAAAAAAAAAAAAAAAAAAAAAAAAAAAAAAAAAAAAAAAAAAAAAAAAAAAAAAAAAAAAAAAAAAAAAAAAAAAAAAAAAAAAAAAAAAAAAAAAAAAAAAAAAAAAAAAAAAAAAAAAAAAAAAAAAAAAAAAAAAAAAAAAAAAAAAAAAAAAAAAAAAAAAAAAAAAAAAAAAAAAAAAAAAAAAAAAAAAAAAAAAAAAAAAAAAAAAAAAAAAAAAAAAAAAAAAAAAAAAAAAAAAAAAAAAAAAAAAAAAAAAAAAAAAAAAAAAAAAAAAAAAAAAAAAAAAAAAAAAAAAAAAAAAAAAAAAAAAAAAAAAAAAAAAAAAAAAAAAAAAAAAAAAAAAAAAAAAAAAAAAAAAAAAAAAAAAAAAAAAAAAAAAAAAAAAAAAAAAAAAAAAAAAAAAAAAAAAAAAAAAAAAAAAAAAAAAAAAAAAAAAAAAAAAAAAAAAAAAAAAAAAAAAAAAAAAAAAAAAAAAAAAAAAAAAAAAAAAAAAAAAAAAAAAAAAAAAAAAAAAAAAAAAAAAAAAAAAAAAAAAAAAAAAAAAAAAAAAAAAAAAAAAAAAAAAAAAAAAAAAAAAAAAAAAAAAAAAAAAAAAAAAAAAAAAAAAAAAAAAAAAAAAAAAAAAAAAAAAAAAAAAAAAAAAAAAAAAAAAAAAAAAAAAAAAAAAAAAAAAAAAAAAAAAAAAAAAAAAAAAAAAAAAAAAAAAAAAAAAAAAAAAAAAAAAAAAAAAAAAAAAAAAAAAAAAAAAAAAAAAAAAAAAAAAAAAAAAAAAAAAAAAAAAAAAAAAAAAAAAAAAAAAAAAAAAAAAAAAAAAAAAAAAAAAAAAAAAAAAAAAAAAAAAAAAAAAAAAAAAAAAAAAAAAAAAAAAAAAAAAAAAAAAAAAAAAAAAAAAAAAAAAAAAAAAAAAAAAAAAAAAAAAAAAAAAAAAAAAAAAAAAAAAAAAAAAAAAAAAAAAAAAAAAAAAAAAAAAAAAAAAAAAAAAAAAAAAAAAAAAAAAAAAAAAAAAAAAAAAAAAAAAAAAAAAAAAAAAAAAAAAAAAAAAAAAAAAAAAAAAAAAAAAAAAAAAAAAAAAAAAAAAAAAAAAAAAAAAAAAAAAAAAAAAAAAAAAAAAAAAAAAAAAAAAAAAAAAAAAAAAAAAAAAAAAAAAAAAAAAAAAAAAAAAAAAAAAAAAAAAAAAAAAAAAAAAAAAAAAAAAAAAAAAAAAAAAAAAAAAAAAAAAAAAAAAAAAAAAAAAAAAAAAAAAAAAAAAAAAAAAAAAAAAAAAAAAAAAAAAAAAAAAAAAAAAAAAAAAAAAAAAAAAAAAAAAAAAAAAAAAAAAAAAAAAAAAAAAAAAAAAAAAAAAAAAAAAAAAAAAAAAAAAAAAAAAAAAAAAAAAAAAAAAAAAAAAAAAAAAAAAAAAAAAAAAAAAAAAAAAAAAAAAAAAAAAAAAAAAAAAAAAAAAAAAAAAAAAAAAAAAAAAAAAAAAAAAAAAAAAAAAAAAAAAAAAAAAAAAAAAAAAAAAAAAAAAAAAAAAAAAAAAAAAAAAAAAAAAAAAAAAAAAAAAAAAAAAAAAAAAAAAAAAAAAAAAAAAAAAAAAAAAAAAAAAAAAAAAAAAAAAAAAAAAAAAAAAAAAAAAAAAAAAAAAAAAAAAAAAAAAAAAAAAAAAAAAAAAAAAAAAAAAAAAAAAAAAAAAAAAAAAAAAAAAAAAAAAAAAAAAAAAAAAAAAAAAAAAAAAAAAAAAAAAAAAAAAAAAAAAAAAAAAAAAAAAAAAAAAAAAAAAAAAAAAAAAAAAAAAAAAAAAAAAAAAAAAAAAAAAAAAAAAAAAAAAAAAAAAAAAAAAAAAAAAAAAAAAAAAAAAAAAAAAAAAAAAAAAAAAAAAAAAAAAAAAAAAAAAAAAAAAAAAAAAAAAAAAAAAAAAAAAAAAAAAAAAAAAAAAAAAAAAAAAAAAAAAAAAAAAAAAAAAAAAAAAAAAAAAAAAAAAAAAAAAAAAAAAAAAAAAAAAAAAAAAAAAAAAAAAAAAAAAAAAAAAAAAAAAAAAAAAAAAAAAAAAAAAAAAAAAAAAAAAAAAAAAAAAAAAAAAAAAAAAAAAAAAAAAAAAAAAAAAAAAAAAAAAAAAAAAAAAAAAAAAAAAAAAAAAAAAAAAAAAAAAAAAAAAAAAAAAAAAAAAAAAAAAAAAAAAAAAAAAAAAAAAAAAAAAAAAAAAAAAAAAAAAAAAAAAAAAAAAAAAAAAAAAAAAAAAAAAAAAAAAAAAAAAAAAAAAAAAAAAAAAAAAAAAAAAAAAAAAAAAAAAAAAAAAAAAAAAAAAAAAAAAAAAAAAAAAAAAAAAAAAPZYQLb9H6FQgMN7blgBVjE9tXAB+CWgsqM1spR0mjDvGQjAcvUpJd65jszvpjY0aQTP0k2mzxmBP/qy0bOFcoRq/c0=</c2pa:manifest>
	</metadata>
	<path d="M0 0 C7.2 0.8 11.5 4.4 16.3 9.4 C18.4 11.4 20.4 12.1 23 13 C24.3 14.3 25.7 15.7 27 17 C27.8 17.3 28.5 17.5 29.3 17.8 C32.8 19.3 34.7 21.7 37.3 24.4 C39.4 26.3 41.4 27.1 44 28 C45.3 29.3 46.7 30.7 48 32 C48.8 32.3 49.6 32.6 50.4 32.9 C53.3 34.1 54.7 35.4 56.8 37.6 C57.5 38.3 58.2 39 58.9 39.8 C60.3 41.3 61.7 42.7 63.1 44.2 C63.8 44.9 64.5 45.6 65.2 46.4 C65.8 47 66.4 47.7 67 48.3 C69 50 69 50 71.3 50.8 C74.7 52.3 76.9 54.5 79.5 57.1 C80 57.6 80.5 58.1 81.1 58.7 C82.8 60.4 84.5 62.1 86.2 63.8 C87.4 65 88.6 66.2 89.8 67.4 C92.3 69.9 94.8 72.4 97.3 74.9 C100.5 78.2 103.8 81.4 107 84.6 C109.4 87 111.9 89.5 114.4 92 C115.6 93.2 116.8 94.4 117.9 95.5 C119.6 97.2 121.2 98.8 122.9 100.5 C123.4 101 123.9 101.5 124.4 102 C127.2 104.8 128.7 107.3 130 111 C131.7 113 131.7 113 133.6 114.8 C134.3 115.5 135 116.2 135.8 116.9 C136.5 117.6 137.2 118.3 138 119 C139.5 120.4 140.9 121.8 142.4 123.2 C143 123.8 143.7 124.4 144.3 125 C146.2 127.2 147 129.3 148 132 C149.7 133.8 149.7 133.8 151.5 135.5 C154.4 138.3 155.5 140.3 157 144 C158.1 145.2 159.3 146.4 160.5 147.5 C163.3 150.2 164.8 152.2 166 156 C167.4 159.2 168.6 161.6 171.1 164.1 C173.3 166.3 173.9 168.1 175 171 C175.7 171.7 176.3 172.3 177 173 C179.2 175.2 179.8 177.1 181 180 C181.7 180.7 182.3 181.3 183 182 C185.3 184.3 185.9 186 187 189 C188 191 189 193 190 195 C191.5 198 193 201 194.4 204.1 C196 207 196 207 198.1 208.9 C200.7 211.8 200.6 214.3 201 218 C201.7 218.7 202.3 219.3 203 220 C203.7 221.7 204.4 223.3 205 225 C206 227 207 229 208 231 C209.6 234.1 211.1 237.2 212.6 240.3 C214 243 214 243 215 244 C215.1 245.1 215.3 246.3 215.4 247.4 C216 251 216 251 218 253 C218.7 254.7 219.4 256.3 220 258 C220.3 258.3 220.7 258.7 221 259 C221.1 260.1 221.3 261.3 221.4 262.4 C222 266 222 266 224 268 C224.7 269.7 225.4 271.3 226 273 C226.3 273.3 226.7 273.7 227 274 C227.3 276.5 227.4 279.1 227.6 281.7 C228 284 228 284 230 286 C230.7 287.7 231.4 289.3 232 291 C232.3 291.3 232.7 291.7 233 292 C233.3 294.5 233.4 297.1 233.6 299.7 C234 302 234 302 236 304 C236.3 306.3 236.7 308.7 237 311 C237.7 311.7 238.3 312.3 239 313 C239.3 316.4 239.5 319.8 239.6 323.2 C239.8 328.8 239.8 328.8 242 331 C242.4 334.3 242.5 337.7 242.7 341 C243 344 243 344 245 346 C245.3 349.4 245.5 352.8 245.6 356.2 C245.8 361.8 245.8 361.8 248 364 C248.3 366.2 248.3 366.2 248.3 368.9 C248.4 369.4 248.4 369.4 248.4 371.9 C248.5 374 248.5 376 248.6 378.1 C248.6 378.6 248.6 378.6 248.7 381.1 C248.7 382 248.7 382.9 248.7 383.8 C249 386 249 386 251 388 C251.2 390.6 251.2 393.1 251.2 395.6 C251.2 396 251.2 396 251.2 397.9 C251.2 400.3 251.2 402.7 251.1 405.1 C251.1 406.8 251.1 408.4 251.1 410 C251.1 414 251 418 251 422 C249.3 422.4 247.7 422.7 246 423 C244 421 244.6 417.1 244.4 414.3 C244 412 244 412 242 410 C241.7 407.7 241.3 405.3 241 403 C240.3 402.3 239.7 401.7 239 401 C238.7 398.7 238.3 396.3 238 394 C237.3 393.3 236.7 392.7 236 392 C235.3 390.3 234.6 388.7 234 387 C233.7 386.7 233.3 386.3 233 386 C232.9 384.9 232.7 383.7 232.6 382.6 C232 379 232 379 230 377 C229.3 375.3 228.6 373.7 228 372 C227 370 226 368 225 366 C223.5 363 222 360 220.6 356.9 C219 354 219 354 216.9 351.9 C214.7 349.7 214.1 347.9 213 345 C212.3 344.3 211.7 343.7 211 343 C209 341 209 341 208.2 338.7 C206.7 335.2 204.4 333.3 201.7 330.8 C200 329 200 329 199.1 326.6 C197.9 323.8 196.6 322.2 194.4 320 C194 319.6 194 319.6 192.1 317.7 C191.3 316.9 190.5 316.1 189.7 315.3 C188.8 314.4 188 313.6 187.2 312.7 C185.4 311 183.6 309.2 181.9 307.5 C179.2 304.8 176.5 302.1 173.8 299.4 C172.1 297.7 170.4 296 168.7 294.3 C167.9 293.5 167.1 292.7 166.3 291.9 C165.6 291.1 164.8 290.4 164 289.6 C163.7 289.3 163.7 289.3 162 287.6 C159.8 285.8 157.7 285 155 284 C153.7 282.7 152.3 281.3 151 280 C150.2 279.7 149.5 279.5 148.7 279.2 C145.9 277.9 144.6 276.7 142.5 274.5 C139.8 271.7 137.8 270.2 134 269 C129.8 267.1 127.2 265.2 124 262 C121.3 260.8 121.3 260.8 119 260 C118.7 259.7 118.3 259.3 118 259 C116.9 258.9 115.7 258.7 114.6 258.6 C111 258 111 258 109 256 C107.3 255.3 105.7 254.6 104 254 C103.7 253.7 103.3 253.3 103 253 C100.7 253 98.3 253 96 253 C95.9 254.1 95.8 255.2 95.6 256.4 C95 260 95 260 93 262 C92.7 264.2 92.7 264.2 92.7 266.9 C92.6 267.9 92.6 268.9 92.6 269.9 C92.6 270.4 92.6 270.4 92.5 273 C92.5 275 92.4 277 92.3 279.1 C92.3 280 92.3 280.9 92.3 281.8 C92 284 92 284 90 286 C89.7 287.9 89.7 287.9 89.7 290.1 C89.7 290.6 89.7 290.6 89.7 292.7 C89.7 293.7 89.7 294.6 89.7 295.5 C89.7 296 89.7 296 89.7 298.4 C89.7 300.4 89.7 302.4 89.7 304.4 C89.7 307.5 89.7 310.6 89.7 313.6 C89.7 315.6 89.7 317.5 89.7 319.5 C89.7 319.9 89.7 319.9 89.7 322.3 C89.7 323.1 89.7 324 89.7 324.9 C89.7 325.6 89.7 326.4 89.7 327.1 C90 329 90 329 92 331 C92.3 333.2 92.3 333.2 92.3 335.9 C92.4 336.9 92.4 337.9 92.4 338.9 C92.5 341 92.5 343 92.6 345.1 C92.6 346.1 92.6 347.1 92.7 348.1 C92.7 349 92.7 349.9 92.7 350.8 C93 353 93 353 95 355 C95.4 357.6 95.5 360.1 95.7 362.7 C96 365 96 365 98 367 C98.4 369.6 98.5 372.1 98.7 374.7 C99 377 99 377 101 379 C101.3 381.3 101.7 383.7 102 386 C102.7 386.7 103.3 387.3 104 388 C104.3 390.3 104.7 392.7 105 395 C105.7 395.7 106.3 396.3 107 397 C107.7 398.7 108.4 400.3 109 402 C109.3 402.3 109.7 402.7 110 403 C110.1 403.6 110.1 403.6 110.4 406.4 C111 410 111 410 113 412 C113.7 413.7 114.4 415.3 115 417 C116 419 117 421 118 423 C118.5 424 118.9 425.1 119.4 426.1 C121 429 121 429 123.1 431.1 C125.3 433.3 125.9 435.1 127 438 C127.7 438.7 128.3 439.3 129 440 C131.3 442.3 131.9 444 133 447 C135 451.8 137.5 454.8 141.4 458.2 C143 460 143 460 143.9 462.4 C145.1 465.2 146.4 466.8 148.6 469 C149 469.4 149 469.4 150.9 471.3 C151.7 472.1 152.5 472.9 153.3 473.7 C154.2 474.6 155 475.4 155.8 476.3 C157.6 478 159.4 479.8 161.1 481.5 C163.8 484.2 166.5 486.9 169.2 489.6 C170.9 491.3 172.6 493 174.3 494.7 C175.1 495.5 175.9 496.3 176.7 497.1 C177.4 497.9 178.2 498.6 179 499.4 C179.3 499.7 179.3 499.7 181 501.4 C183.2 503.2 185.3 504 188 505 C189.3 506.3 190.7 507.7 192 509 C192.8 509.3 193.6 509.7 194.5 510 C197.4 511.2 198.8 512.8 201 515 C203.4 516.1 203.4 516.1 206 517 C208 518 210 519 212 520 C213 520.5 214 521 215 521.5 C220 524 225 526.5 230 529 C230.5 529.3 230.5 529.3 233.3 530.6 C236 532 236 532 237 533 C243.3 533.5 243.3 533.5 245.8 531.8 C247.2 529.6 248.1 527.4 249 525 C249.3 524.7 249.7 524.3 250 524 C250.1 522.9 250.3 521.7 250.4 520.6 C251 517 251 517 253 515 C253.7 513.3 254.4 511.7 255 510 C256 508 257 506 258 504 C258.3 503.5 258.3 503.5 259.6 500.7 C261 498 261 498 262 497 C262.1 495.9 262.3 494.7 262.4 493.6 C263 490 263 490 265 488 C265.7 486.3 266.4 484.7 267 483 C269.8 477.2 269.8 477.2 271 476 C271.1 474.9 271.3 473.7 271.4 472.6 C272 469 272 469 274 467 C274.7 465.3 275.4 463.7 276 462 C276.3 461.7 276.7 461.3 277 461 C277.1 459.9 277.3 458.7 277.4 457.6 C278 454 278 454 280 452 C280.7 450.3 281.4 448.7 282 447 C282.3 446.7 282.7 446.3 283 446 C283.1 444.9 283.3 443.7 283.4 442.6 C284 439 284 439 286 437 C286.2 435.8 286.3 434.7 286.5 433.5 C287 430 287 430 289 428 C289.2 426.8 289.3 425.7 289.5 424.5 C290 421 290 421 292 419 C292.2 417.8 292.3 416.7 292.5 415.5 C293 412 293 412 295 410 C295.2 408.8 295.3 407.7 295.5 406.5 C296 403 296 403 298 401 C298.2 398.8 298.4 396.7 298.5 394.5 C298.8 388.2 298.8 388.2 301 386 C301.3 383.7 301.3 383.7 301.5 381 C301.8 376.2 301.8 376.2 304 374 C304.3 372.1 304.3 372.1 304.3 369.8 C304.3 369 304.4 368.1 304.4 367.2 C304.4 366.3 304.4 365.4 304.4 364.4 C304.4 363.9 304.4 363.9 304.5 361.5 C304.5 358.5 304.6 355.4 304.6 352.4 C304.7 350.3 304.7 348.2 304.7 346.2 C304.8 341.1 304.9 336.1 305 331 C307.4 330.4 307.4 330.4 310 330 C310.7 330.7 311.3 331.3 312 332 C313.7 332.7 315.3 333.4 317 334 C319 335 321 336 323 337 C324 337.5 325 338 326 338.5 C329 340 332 341.5 335 343 C335.5 343.2 335.5 343.2 338.1 344.4 C341 346 342.7 347.7 345 350 C345.8 350.3 346.5 350.5 347.3 350.8 C350.8 352.3 352.7 354.6 355.2 357.3 C357 359 357 359 359.3 359.9 C362.4 361.2 364.1 362.7 366.4 365 C367.2 365.8 368.1 366.7 368.9 367.5 C369.4 367.9 369.4 367.9 371.6 370.2 C372.5 371.1 373.4 372 374.4 373 C376.3 374.9 378.3 376.9 380.2 378.8 C382.7 381.3 385.2 383.8 387.7 386.3 C390 388.6 392.4 391 394.8 393.4 C395.7 394.3 396.6 395.2 397.5 396.1 C398.3 396.9 399.1 397.7 400 398.6 C400.7 399.3 401.5 400.1 402.2 400.8 C404.1 403.1 405 405.2 406 408 C406.7 408.7 407.3 409.3 408 410 C410.2 412.2 410.8 414.1 412 417 C412.7 417.7 413.3 418.3 414 419 C416.2 421.2 416.8 423.1 418 426 C418.7 426.7 419.3 427.3 420 428 C422.3 430.3 422.9 432 424 435 C425 437 426 439 427 441 C428.6 444.1 430.1 447.2 431.6 450.3 C433 453 433 453 434 454 C434.1 455.1 434.3 456.3 434.4 457.4 C435 461 435 461 437 463 C437.7 464.7 438.4 466.3 439 468 C439.3 468.3 439.7 468.7 440 469 C440.3 471.5 440.4 474.1 440.6 476.7 C441 479 441 479 443 481 C443.3 483.3 443.7 485.7 444 488 C444.7 488.7 445.3 489.3 446 490 C446.4 492.6 446.5 495.2 446.7 497.8 C446.8 498.5 446.9 499.2 447 500 C447.7 500.3 448.3 500.7 449 501 C449 503 449 505 449 507 C450 507 451 507 452 507 C454.3 503.1 454.4 499.7 454.7 495.2 C455 493 455 493 457 491 C457.3 488.7 457.3 488.7 457.5 486 C457.8 481.2 457.8 481.2 460 479 C460.2 477.8 460.3 476.7 460.5 475.5 C461 472 461 472 463 470 C463.2 468.8 463.3 467.7 463.5 466.5 C464 463 464 463 466 461 C466.7 459.3 467.4 457.7 468 456 C470.8 450.2 470.8 450.2 472 449 C472.1 447.9 472.2 446.9 472.2 445.8 C473.2 441.2 474.7 440.1 478 437 C479.1 434.6 479.1 434.6 480 432 C481 430 482 428 483 426 C483.2 425.5 483.2 425.5 484.2 423.1 C486.2 419.6 488.6 417.4 491.4 414.7 C493 413 493 413 494 410.5 C495.4 407.1 497.7 405.3 500.3 402.8 C502 401 502 401 502.7 398.9 C504.7 394.6 507.9 391.7 511.2 388.4 C512 387.6 512.7 386.9 513.4 386.2 C514.9 384.7 516.5 383.1 518 381.6 C520.3 379.3 522.6 377 524.9 374.7 C526.4 373.2 527.9 371.7 529.4 370.2 C530.1 369.5 530.7 368.8 531.5 368.1 C534.8 364.8 537.4 362.5 542 361 C544.5 358.7 544.5 358.7 547 356 C550.2 352.6 552.5 350.5 557 349 C560.2 347.6 562.6 346.4 565.1 343.9 C567.3 341.7 569.1 341.1 572 340 C574 339 576 338 578 337 C580 336 582 335 584 334 C584.5 333.7 584.5 333.7 587.1 332.4 C589.8 331.1 592 330.3 595 330 C597 332 596.2 336.3 596.2 339.1 C596.3 340.8 596.3 342.5 596.3 344.1 C596.4 346.8 596.4 349.4 596.5 352.1 C596.5 354.6 596.6 357.2 596.6 359.7 C596.6 360.1 596.6 360.1 596.6 362.2 C596.8 367.8 596.8 367.8 599 370 C599.3 373.4 599.5 376.8 599.6 380.2 C599.8 385.8 599.8 385.8 602 388 C602.3 390.3 602.7 392.7 603 395 C603.7 395.7 604.3 396.3 605 397 C605.4 399.6 605.5 402.1 605.7 404.7 C606 407 606 407 608 409 C608.3 411.3 608.7 413.7 609 416 C609.7 416.7 610.3 417.3 611 418 C611.3 420.3 611.7 422.7 612 425 C612.7 425.7 613.3 426.3 614 427 C614.3 429.3 614.7 431.7 615 434 C615.7 434.7 616.3 435.3 617 436 C617.3 438.3 617.7 440.7 618 443 C618.7 443.7 619.3 444.3 620 445 C620.3 447.3 620.7 449.7 621 452 C621.7 452.7 622.3 453.3 623 454 C623.7 455.7 624.4 457.3 625 459 C627.8 464.8 627.8 464.8 629 466 C629.1 467.1 629.3 468.3 629.4 469.4 C630 473 630 473 632 475 C632.7 476.7 633.4 478.3 634 480 C634.3 480.3 634.7 480.7 635 481 C635.1 482.1 635.3 483.3 635.4 484.4 C636 488 636 488 638 490 C638.7 491.7 639.4 493.3 640 495 C640.3 495.3 640.7 495.7 641 496 C641.1 497.1 641.3 498.3 641.4 499.4 C642 503 642 503 644 505 C644.7 506.7 645.4 508.3 646 510 C647 512 648 514 649 516 C650 518 651 520 652 522 C652.3 522.5 652.3 522.5 653.6 525.1 C654.8 527.7 656 530.3 657 533 C661.9 532.1 661.9 532.1 663 531 C664.1 530.9 665.3 530.7 666.4 530.6 C670 530 670 530 672 528 C673.7 527.3 675.3 526.6 677 526 C680.2 524.6 682.6 523.4 685.1 520.9 C687.3 518.7 689.1 518.1 692 517 C694 516 696 515 698 514 C699 513.5 700.1 513.1 701.1 512.6 C704 511 704 511 706.1 508.9 C708.3 506.7 710.1 506.1 713 505 C713.7 504.3 714.3 503.7 715 503 C717 501 717 501 719.3 500.2 C722.7 498.7 724.5 496.7 727 494 C730.3 490.5 732.6 488.7 737 487 C739.2 485.2 739.2 485.2 741.2 483.2 C741.9 482.5 742.5 481.9 743.2 481.2 C745 479 745 479 745.9 476.6 C747.7 472.3 751.3 469.6 754.7 466.5 C757 464 757.8 462.2 759 459 C760.7 457.2 760.7 457.2 762.5 455.5 C765.3 452.8 766.7 450.7 768 447 C769.3 445.7 770.7 444.3 772 443 C772.3 442.2 772.7 441.4 773 440.5 C774.2 437.6 775.8 436.2 778 434 C779.1 431.6 779.1 431.6 780 429 C781 427 782 425 783 423 C783.5 422 784 421 784.5 420 C787 415 789.5 410 792 405 C792.3 404.5 792.3 404.5 793.6 401.7 C795 399 795 399 796 398 C796.1 396.9 796.3 395.7 796.4 394.6 C797 391 797 391 799 389 C799.2 387.8 799.3 386.7 799.5 385.5 C800 382 800 382 802 380 C802.3 377.7 802.3 377.7 802.5 375 C802.8 370.2 802.8 370.2 805 368 C805.3 365.7 805.3 365.7 805.5 363 C805.8 358.2 805.8 358.2 808 356 C808.3 353.3 808.4 350.7 808.5 348 C808.7 340.3 808.7 340.3 811 338 C811.3 335.6 811.3 335.6 811.3 332.5 C811.3 331.3 811.3 330.2 811.3 329 C811.3 327.7 811.3 326.5 811.3 325.2 C811.3 323.9 811.3 322.6 811.3 321.3 C811.3 318.6 811.3 315.9 811.3 313.2 C811.2 309.7 811.3 306.2 811.3 302.7 C811.3 299.4 811.3 296.1 811.3 292.8 C811.3 292.2 811.3 292.2 811.3 289 C811.3 287.9 811.3 286.7 811.3 285.5 C811.3 284.5 811.3 283.5 811.3 282.4 C811 280 811 280 809 278 C808.7 275.8 808.7 275.8 808.7 273.1 C808.7 272.6 808.7 272.6 808.6 270.2 C808.6 268.1 808.5 266 808.5 264 C808.5 263 808.5 262 808.4 261 C808.4 260.1 808.4 259.2 808.4 258.3 C807.9 255.5 807.3 254.6 805 253 C801.4 252.7 801.4 252.7 798 253 C797.3 253.7 796.7 254.3 796 255 C794.3 255.7 792.7 256.4 791 257 C789 258 787 259 785 260 C773 266 773 266 769.9 267.4 C767 269 767 269 764.9 271.1 C762.7 273.3 760.9 273.9 758 275 C757.3 275.7 756.7 276.3 756 277 C754 279 754 279 751.7 279.8 C748.3 281.3 746.5 283.3 744 286 C739.5 290.8 739.5 290.8 736.8 291.7 C732.8 293.5 730.3 296.3 727.2 299.4 C726.6 300 726 300.6 725.3 301.3 C724 302.6 722.7 303.9 721.3 305.3 C719.3 307.3 717.3 309.3 715.2 311.3 C713.9 312.6 712.7 313.9 711.4 315.2 C710.8 315.8 710.1 316.4 709.5 317.1 C706.4 320.2 704.4 322.7 703 327 C701.3 328.8 701.3 328.8 699.5 330.5 C696.1 333.7 696.1 333.7 695 336.5 C693.9 339.3 692.7 340.4 690.5 342.5 C687.7 345.2 686.2 347.2 685 351 C684 353 683 355 682 357 C681.8 357.5 681.8 357.5 680.6 360.1 C679 363 679 363 676.9 364.9 C674.3 367.8 674.4 370.3 674 374 C673.3 374.7 672.7 375.3 672 376 C671.3 377.7 670.6 379.3 670 381 C669 383 668 385 667 387 C666.7 387.5 666.7 387.5 665.4 390.3 C664 393 664 393 663 394 C662.7 396.5 662.6 399.1 662.4 401.7 C662 404 662 404 660 406 C659.8 407.2 659.7 408.3 659.5 409.5 C659 413 659 413 657 415 C656.6 417.6 656.6 417.6 656.4 420.6 C656.3 421.6 656.2 422.6 656.1 423.7 C656.1 424.4 656.1 425.2 656 426 C655 426 654 426 653 426 C650.1 423.1 649.6 420.9 649.6 416.9 C649.6 415.9 649.6 414.9 649.6 413.9 C649.6 413.4 649.6 413.4 649.7 410.9 C649.7 409.9 649.7 408.8 649.7 407.8 C649.7 400.3 649.7 400.3 652 398 C652.3 395.2 652.3 395.2 652.3 391.8 C652.4 390.5 652.4 389.3 652.4 388 C652.5 386.7 652.5 385.3 652.5 384 C652.5 381.4 652.6 378.8 652.7 376.2 C652.7 375.7 652.7 375.7 652.7 372.8 C653 370 653 370 655 368 C655.3 365.3 655.4 362.7 655.5 360 C655.7 352.3 655.7 352.3 658 350 C658.3 347.3 658.4 344.7 658.5 342 C658.7 334.3 658.7 334.3 661 332 C661.2 329.8 661.4 327.7 661.5 325.5 C661.8 319.2 661.8 319.2 664 317 C664.3 314.7 664.3 314.7 664.5 312 C664.8 307.2 664.8 307.2 667 305 C667.3 302.7 667.3 302.7 667.5 300 C667.8 295.2 667.8 295.2 670 293 C670.7 291.3 671.4 289.7 672 288 C672.3 287.7 672.7 287.3 673 287 C673.3 284.5 673.4 281.9 673.6 279.3 C674 277 674 277 676 275 C676.7 273.3 677.4 271.7 678 270 C678.3 269.7 678.7 269.3 679 269 C679.1 267.9 679.3 266.7 679.4 265.6 C680 262 680 262 682 260 C682.2 258.8 682.3 257.7 682.5 256.5 C683 253 683 253 685 251 C685.7 249.3 686.4 247.7 687 246 C689.8 240.2 689.8 240.2 691 239 C691.1 237.9 691.3 236.7 691.4 235.6 C692 232 692 232 694 230 C694.7 228.3 695.4 226.7 696 225 C697 223 698 221 699 219 C699.5 218 700 217 700.5 216 C703 211 705.5 206 708 201 C708.2 200.5 708.2 200.5 709.4 197.9 C711 195 712.7 193.3 715 191 C716.1 188.6 716.1 188.6 717 186 C718.9 181.8 720.8 179.2 724 176 C725.1 173.6 725.1 173.6 726 171 C727.9 166.8 729.8 164.2 733 161 C733.3 160.2 733.5 159.5 733.8 158.7 C735.1 155.9 736.3 154.6 738.5 152.5 C741.9 149.3 741.9 149.3 743 146.5 C744.4 143.1 746.7 141.3 749.3 138.8 C751 137 751 137 751.9 134.6 C753.7 130.3 757.3 127.6 760.7 124.5 C763 122 763 122 764 119.5 C765.7 115.2 769.4 112.6 772.7 109.5 C775 107 775 107 775.9 104.6 C777.2 101.5 778.9 99.7 781.3 97.3 C782.2 96.4 783 95.5 784 94.6 C784.9 93.7 785.9 92.7 786.9 91.7 C787.9 90.7 788.9 89.7 789.8 88.7 C791.9 86.7 794 84.6 796.1 82.5 C798.8 79.9 801.4 77.2 804.1 74.5 C806.1 72.4 808.2 70.4 810.3 68.3 C811.2 67.4 812.2 66.4 813.2 65.4 C814.6 64 816 62.6 817.3 61.3 C818.1 60.5 818.9 59.7 819.7 58.9 C822.1 56.9 824.1 56 827 55 C829 53.3 829 53.3 830.8 51.4 C831.5 50.7 832.2 50 832.9 49.2 C833.6 48.5 834.3 47.8 835 47 C836.4 45.5 837.8 44.1 839.2 42.6 C839.8 42 840.4 41.3 841 40.7 C843.2 38.8 845.3 38 848 37 C849.8 35.3 849.8 35.3 851.5 33.5 C854.3 30.6 856.3 29.5 860 28 C861.2 26.9 862.4 25.7 863.5 24.5 C866.3 21.6 868.3 20.5 872 19 C873.8 17.3 875.6 15.4 877.3 13.6 C879.4 11.7 881.4 10.9 884 10 C884.7 9.3 885.3 8.7 886 8 C888.2 5.8 890.1 5.2 893 4 C893.6 3.3 894.2 2.6 894.8 1.9 C898.1 -1 900.7 -0.3 905 0 C905 1 905 2 905 3 C904.3 3.3 903.7 3.7 903 4 C902.7 6.3 902.3 8.7 902 11 C901.3 11.7 900.7 12.3 900 13 C899.3 14.7 898.6 16.3 898 18 C895.2 23.8 895.2 23.8 894 25 C893.9 26.1 893.7 27.3 893.6 28.4 C893 32 893 32 891 34 C890.8 35.2 890.7 36.3 890.5 37.5 C890 41 890 41 888 43 C887.8 45.2 887.6 47.3 887.5 49.5 C887.2 55.8 887.2 55.8 885 58 C884.7 60.3 884.7 60.3 884.5 63 C884.2 67.8 884.2 67.8 882 70 C881.8 72.5 881.7 74.9 881.7 77.4 C881.7 78.2 881.7 79 881.7 79.8 C881.7 82.3 881.7 84.9 881.7 87.4 C881.7 89.2 881.7 90.9 881.7 92.7 C881.7 96.4 881.7 100.1 881.7 103.8 C881.8 108.5 881.7 113.3 881.7 118 C881.7 121.7 881.7 125.3 881.7 129 C881.7 130.7 881.7 132.5 881.7 134.2 C881.7 136.7 881.7 139.1 881.7 141.6 C881.7 141.9 881.7 141.9 881.7 143.8 C881.8 148.8 881.8 148.8 884 151 C884.4 154.3 884.5 157.7 884.7 161 C885 164 885 164 887 166 C887.4 169.3 887.5 172.7 887.7 176 C888 179 888 179 890 181 C890.3 183.3 890.7 185.7 891 188 C891.7 188.7 892.3 189.3 893 190 C893.3 192.3 893.7 194.7 894 197 C894.7 197.7 895.3 198.3 896 199 C896.3 201.3 896.7 203.7 897 206 C897.7 206.7 898.3 207.3 899 208 C899.3 208.8 899.6 209.6 899.9 210.4 C901 213 901 213 903 215 C905.2 217.2 906 219.1 907 222 C907.3 222.3 907.7 222.7 908 223 C908.1 224.1 908.3 225.3 908.4 226.4 C909 230 909 230 911 232 C911.3 232.8 911.6 233.6 911.9 234.4 C913 237 913 237 915 239 C917.2 241.2 917.8 243.1 919 246 C919.7 246.7 920.3 247.3 921 248 C923.2 250.2 923.8 252.1 925 255 C925.7 255.7 926.3 256.3 927 257 C929.3 259.3 929.9 261 931 264 C932 266 933 268 934 270 C940 282 940 282 941.6 285.3 C943 288 943 288 944 289 C944.1 290.1 944.3 291.3 944.4 292.4 C945 296 945 296 947 298 C947.3 300.3 947.7 302.7 948 305 C948.7 305.7 949.3 306.3 950 307 C950.4 309.6 950.5 312.1 950.7 314.7 C951 317 951 317 953 319 C953.3 322.4 953.5 325.8 953.6 329.2 C953.8 334.8 953.8 334.8 956 337 C956.3 339.3 956.3 339.3 956.3 342.2 C956.3 343.3 956.3 344.4 956.3 345.6 C956.3 346.2 956.3 346.2 956.3 349.2 C956.3 349.8 956.3 349.8 956.3 352.8 C956.3 355.4 956.3 358 956.3 360.5 C956.3 364.5 956.3 368.4 956.3 372.4 C956.3 374.9 956.3 377.4 956.3 379.8 C956.3 381 956.3 382.2 956.3 383.4 C956.3 384.5 956.3 385.6 956.3 386.8 C956.3 387.2 956.3 387.2 956.3 389.7 C956 392 956 392 954 394 C953.8 396.2 953.8 396.2 953.7 398.8 C953.3 403.9 951.9 405.6 948 409 C948 410.3 948 411.6 948 413 C948.7 413.3 949.3 413.7 950 414 C950 415 950 416 950 417 C949.7 417.2 949.7 417.2 948 418 C947.7 420.9 947.7 420.9 947.5 424.4 C947.2 430.8 947.2 430.8 945 433 C944.3 434.7 943.6 436.3 943 438 C942.7 438.3 942.3 438.7 942 439 C941.9 440.6 941.8 442.2 941.8 443.8 C941.3 448.8 939.9 450.7 936 454 C934.9 456.4 934.9 456.4 934 459 C933 461 932 463 931 465 C930.8 465.5 930.8 465.5 929.6 468.1 C928 471 926.3 472.7 924 475 C922.9 477.4 922.9 477.4 922 480 C919.3 486.9 913.9 491.2 908.6 496.2 C907.9 496.8 907.2 497.5 906.5 498.2 C905.8 498.8 905.2 499.4 904.5 500.1 C902.7 502.4 902.4 504.1 902 507 C900 507 898 507 896 507 C896 509 896 511 896 513 C895.6 513.1 895.6 513.1 893.4 513.6 C889 515.4 886.6 518 883.4 521.5 C879.8 525.5 877.1 528.1 872 530 C869.4 532.5 867.1 535.1 864.7 537.8 C861.4 540.5 859.2 540.6 855 541 C854.3 541.7 853.7 542.3 853 543 C851.3 543.7 849.7 544.4 848 545 C844.8 546.4 842.4 547.5 840.1 550.1 C837.2 552.7 834.7 552.6 831 553 C830.3 553.7 829.7 554.3 829 555 C826.4 554.6 826.4 554.6 824 554 C824 553.3 824 552.7 824 552 C823 552 822 552 821 552 C821 553 821 554 821 555 C822 555 823 555 824 555 C824 556 824 557 824 558 C823.4 558 822.8 558 822.2 558 C819.6 558 817 558.1 814.3 558.2 C813.4 558.2 812.5 558.2 811.5 558.2 C804.7 558.4 804.7 558.4 801.1 561.5 C800.4 562.3 799.7 563.2 799 564 C795.3 564.7 795.3 564.7 792 565 C791.3 565.7 790.7 566.3 790 567 C787.7 567.3 785.3 567.7 783 568 C782.3 568.7 781.7 569.3 781 570 C778.7 570.3 776.3 570.7 774 571 C773.3 571.7 772.7 572.3 772 573 C770.3 573.7 768.7 574.4 767 575 C766.7 575.3 766.3 575.7 766 576 C764.9 576.1 763.7 576.3 762.6 576.4 C759 577 759 577 757 579 C754.7 579.3 752.3 579.7 750 580 C749.3 580.7 748.7 581.3 748 582 C745.7 582.3 743.3 582.7 741 583 C740.3 583.7 739.7 584.3 739 585 C738.5 585.1 738.5 585.1 735.7 585.3 C732 586 732 586 729.5 588.5 C726.4 591.6 724.3 591.6 720 592 C719.3 592.7 718.7 593.3 718 594 C716.3 594.7 714.7 595.4 713 596 C711 597 709 598 707 599 C705.9 599.5 704.8 600.1 703.7 600.6 C701 602 701 602 700 603 C698.9 603.1 697.7 603.3 696.6 603.4 C693 604 693 604 691 606 C690.2 606.3 689.4 606.6 688.6 606.9 C686 608 686 608 684 610 C681.7 612.3 680 612.9 677 614 C673.8 615.4 671.4 616.6 668.9 619.1 C666.7 621.3 664.9 621.9 662 623 C658.8 624.4 656.4 625.6 653.9 628.1 C651.7 630.3 649.9 630.9 647 632 C646.3 632.7 645.7 633.3 645 634 C642.8 636.2 640.9 636.8 638 638 C637.3 638.7 636.7 639.3 636 640 C634 642 634 642 631.7 642.8 C628.9 644.1 627.6 645.3 625.5 647.5 C622.7 650.4 620.7 651.5 617 653 C615.2 654.7 613.5 656.5 611.8 658.3 C610 660 610 660 607.6 660.9 C604.8 662.1 603.3 663.4 601.2 665.6 C600.5 666.3 599.8 667 599.1 667.8 C598.4 668.5 597.7 669.2 597 670 C595.6 671.5 594.2 672.9 592.8 674.4 C592.2 675 591.6 675.7 591 676.3 C588.8 678.2 586.7 679 584 680 C582 682 582 682 581.1 684.3 C579.8 687.5 578.2 689.1 575.7 691.5 C574.9 692.3 574 693.1 573.2 693.9 C571.4 695.6 569.6 697.4 567.8 699.1 C567 699.9 566.1 700.7 565.3 701.5 C564.5 702.3 563.7 703 562.9 703.8 C560.9 706.1 560 708.1 559 711 C557.3 712.8 557.3 712.8 555.5 714.5 C552.7 717.2 551.3 719.3 550 723 C548.7 724.3 547.3 725.7 546 727 C545.7 727.8 545.3 728.6 545 729.5 C543.8 732.4 542.2 733.8 540 736 C539.7 736.8 539.3 737.6 539 738.5 C537.8 741.4 536.2 742.8 534 745 C533.7 745.8 533.3 746.6 533 747.5 C531.8 750.4 530.2 751.8 528 754 C526.9 756.4 526.9 756.4 526 759 C525 761 524 763 523 765 C522.7 765.5 522.7 765.5 521.4 768.3 C520 771 520 771 519 772 C518.9 773.1 518.7 774.3 518.6 775.4 C518 779 518 779 516 781 C515.3 782.7 514.6 784.3 514 786 C511.2 791.8 511.2 791.8 510 793 C509.9 794.1 509.7 795.3 509.6 796.4 C509 800 509 800 507 802 C506.8 803.2 506.7 804.3 506.5 805.5 C506 809 506 809 504 811 C503.8 812.2 503.7 813.3 503.5 814.5 C503 818 503 818 501 820 C500.7 822.3 500.7 822.3 500.5 825 C500.2 829.8 500.2 829.8 498 832 C497.8 834.2 497.6 836.3 497.5 838.5 C497.2 844.8 497.2 844.8 495 847 C494.7 848.9 494.7 848.9 494.7 851.3 C494.6 851.7 494.6 851.7 494.6 853.8 C494.5 854.7 494.5 855.6 494.5 856.5 C494.5 858.2 494.4 860 494.3 861.7 C494.3 862.5 494.3 863.3 494.3 864.1 C494 866 494 866 492 868 C491.7 870.9 491.7 870.9 491.7 874.6 C491.7 875 491.7 875 491.7 876.7 C491.7 878.9 491.7 881.2 491.7 883.4 C491.7 885 491.7 886.6 491.7 888.1 C491.7 891.4 491.7 894.7 491.7 897.9 C491.8 902.2 491.7 906.4 491.7 910.6 C491.7 913.8 491.7 917 491.7 920.2 C491.7 921.8 491.7 923.3 491.7 924.9 C491.7 927.1 491.7 929.2 491.7 931.4 C491.7 932.6 491.7 933.8 491.7 935.1 C492 938 492 938 494 940 C494.2 942.3 494.2 942.3 494.2 945.1 C494.2 946 494.2 946.9 494.2 947.8 C494 950 494 950 493 951 C490.5 951.3 487.9 951.4 485.3 951.6 C483 952 483 952 481 954 C478.4 953.6 478.4 953.6 476 953 C476 952.3 476 951.7 476 951 C475.8 951.2 475.8 951.2 474.7 952.5 C473 954 473 954 470 954 C468.3 952.5 468.3 952.5 467 951 C466.7 952 466.3 953 466 954 C462.7 954 459.4 954 456 954 C455.7 953 455.3 952 455 951 C454.6 951.5 454.1 952 453.7 952.5 C452 954 452 954 449 954 C447.3 952.5 447.3 952.5 446 951 C445.7 952 445.3 953 445 954 C441.6 954.1 441.6 954.1 438 954 C437.3 953.3 436.7 952.7 436 952 C433.2 951.7 433.2 951.7 429.7 951.6 C428.4 951.5 427.2 951.5 425.9 951.5 C424.6 951.4 423.2 951.4 421.9 951.4 C420.5 951.3 419.2 951.3 417.9 951.3 C414.6 951.2 411.3 951.1 408 951 C407.7 949.4 407.3 947.7 407 946 C408 945.7 409 945.3 410 945 C409.9 934.2 409.8 923.4 409.7 912.6 C409.7 907.6 409.6 902.6 409.6 897.6 C409.5 892.8 409.5 888 409.4 883.1 C409.4 881.3 409.4 879.4 409.4 877.6 C409.4 875 409.4 872.4 409.3 869.8 C409.3 869.1 409.3 868.3 409.3 867.5 C409.2 862.2 409.2 862.2 407 860 C406.7 857.8 406.7 857.8 406.7 855.1 C406.6 854.1 406.6 853.1 406.6 852.1 C406.5 850 406.5 848 406.4 845.9 C406.4 844.9 406.4 843.9 406.3 842.9 C406.3 842.5 406.3 842.5 406.3 840.2 C406 838 406 838 404 836 C403.6 833.4 403.5 830.9 403.3 828.3 C403 826 403 826 401 824 C400.6 821.4 400.5 818.9 400.3 816.3 C400 814 400 814 398 812 C397.7 809.7 397.3 807.3 397 805 C396.3 804.3 395.7 803.7 395 803 C394.7 800.7 394.3 798.3 394 796 C393.3 795.3 392.7 794.7 392 794 C391.7 791.7 391.3 789.3 391 787 C390.3 786.3 389.7 785.7 389 785 C388.3 783.3 387.6 781.7 387 780 C386.7 779.7 386.3 779.3 386 779 C385.9 777.9 385.7 776.7 385.6 775.6 C385 772 385 772 383 770 C382.3 768.3 381.6 766.7 381 765 C379.6 761.8 378.4 759.4 375.9 756.9 C373.7 754.7 373.1 752.9 372 750 C371.3 749.3 370.7 748.7 370 748 C367.7 745.7 367.1 744 366 741 C364 736.1 361.3 733.2 357.6 729.7 C355.6 727.6 354.9 725.6 354 723 C353.3 722.3 352.7 721.7 352 721 C350 719 350 719 349.3 716.8 C347.5 712.9 344.6 710.4 341.5 707.5 C334.7 701.1 334.7 701.1 333 696 C330.6 693.6 329.2 693.5 326 693 C325.8 692.1 325.6 691.3 325.3 690.4 C323.8 686.5 321.6 684.1 318.7 681.2 C318.2 680.8 317.7 680.3 317.3 679.8 C315.1 677.7 313.4 676.1 310.6 675.1 C307.5 673.8 305.9 672.2 303.5 669.7 C302.7 668.9 301.9 668 301.1 667.2 C299.4 665.4 297.6 663.6 295.9 661.8 C295.1 661 294.3 660.1 293.5 659.3 C292.7 658.5 292 657.7 291.2 656.9 C288.9 654.9 286.9 654.1 284 653 C282.7 651.7 281.3 650.3 280 649 C279.2 648.7 278.4 648.3 277.5 648 C274.6 646.8 273.2 645.2 271 643 C270.2 642.7 269.4 642.3 268.5 642 C265.6 640.8 264.2 639.2 262 637 C261.2 636.7 260.5 636.5 259.7 636.2 C255.3 634.3 252.7 630.7 249.5 627.3 C247 625 245.2 624 242 623 C240 622 238 621 236 620 C235 619.5 234 619 233 618.5 C228 616 223 613.5 218 611 C217.5 610.8 217.5 610.8 214.9 609.6 C212 608 212 608 210.1 605.9 C208 604 208 604 204.6 603.6 C200.1 602.9 199.1 601.1 196 598 C192.3 597.3 192.3 597.3 189 597 C188.3 596.3 187.7 595.7 187 595 C185.3 594.3 183.7 593.6 182 593 C180 592 178 591 176 590 C174.9 589.5 173.8 588.9 172.7 588.4 C170 587 170 587 169 586 C167.9 585.9 166.7 585.7 165.6 585.6 C162 585 162 585 160 583 C158.8 582.8 157.7 582.7 156.5 582.5 C153 582 153 582 151 580 C149.3 579.3 147.7 578.6 146 578 C145.7 577.7 145.3 577.3 145 577 C143.9 576.9 142.7 576.7 141.6 576.6 C138 576 138 576 136 574 C134.8 573.8 133.7 573.7 132.5 573.5 C129 573 129 573 127 571 C125.8 570.8 124.7 570.7 123.5 570.5 C120 570 120 570 118 568 C116.8 567.8 115.7 567.7 114.5 567.5 C111 567 111 567 109 565 C107.3 564.3 105.7 563.6 104 563 C98.2 560.2 98.2 560.2 97 559 C95.6 558.9 94.2 558.8 92.8 558.8 C92 558.7 91.1 558.7 90.3 558.7 C88.5 558.6 86.7 558.5 84.9 558.5 C84 558.4 83.2 558.4 82.3 558.4 C81.5 558.4 80.8 558.3 80 558.3 C78 558 78 558 76 556 C74.3 555.3 72.7 554.6 71 554 C70.7 553.7 70.3 553.3 70 553 C68.9 552.9 67.9 552.8 66.8 552.8 C62.2 551.8 61.1 550.3 58 547 C55.6 545.9 55.6 545.9 53 545 C47.2 542.2 47.2 542.2 46 541 C45.5 541 45.5 541 42.8 540.8 C38.3 539.8 36.3 537.9 33.4 534.6 C28.5 529.2 28.5 529.2 25.8 528.3 C21.5 526.3 18.7 523.1 15.4 519.8 C14.6 519 13.9 518.3 13.2 517.6 C11.7 516.1 10.1 514.5 8.6 513 C6.3 510.7 4 508.4 1.7 506.1 C0.2 504.6 -1.3 503.1 -2.8 501.6 C-3.1 501.3 -3.1 501.3 -4.9 499.5 C-8.2 496.2 -10.6 493.6 -12 489 C-13.7 487.2 -13.7 487.2 -15.5 485.5 C-18.3 482.8 -19.8 480.8 -21 477 C-23 472.1 -25.7 469.2 -29.4 465.7 C-31.3 463.6 -32.2 461.7 -33 459 C-33.3 458.7 -33.7 458.3 -34 458 C-34.1 456.9 -34.2 455.9 -34.2 454.8 C-35 451 -35 451 -37.5 448.7 C-40.7 445.2 -40.6 442.8 -40.8 438.2 C-41 436 -41 436 -43 434 C-43.7 432.3 -44.4 430.7 -45 429 C-45.3 428.7 -45.7 428.3 -46 428 C-46.3 425.5 -46.4 422.9 -46.6 420.3 C-47 418 -47 418 -49 416 C-49.3 413.7 -49.7 411.3 -50 409 C-50.7 408.3 -51.3 407.7 -52 407 C-52.3 405.1 -52.3 405.1 -52.3 402.7 C-52.4 401.9 -52.4 401 -52.4 400.2 C-52.5 398.4 -52.5 396.6 -52.6 394.8 C-52.6 394 -52.6 393.1 -52.7 392.3 C-52.7 391.5 -52.7 390.7 -52.7 389.9 C-53 388 -53 388 -55 386 C-55.3 384 -55.3 384 -55.3 381.6 C-55.3 380.7 -55.3 379.8 -55.3 378.8 C-55.3 377.8 -55.3 376.8 -55.3 375.8 C-55.3 374.8 -55.3 373.8 -55.3 372.7 C-55.3 370.6 -55.3 368.5 -55.3 366.3 C-55.3 363 -55.3 359.7 -55.3 356.4 C-55.3 354.3 -55.3 352.3 -55.3 350.2 C-55.3 349.2 -55.3 348.2 -55.3 347.2 C-55.3 346.3 -55.3 345.4 -55.3 344.4 C-55.3 343.6 -55.3 342.8 -55.3 342 C-55 340 -55 340 -53 338 C-52.8 335.8 -52.6 333.7 -52.5 331.5 C-52.2 325.2 -52.2 325.2 -50 323 C-49.8 320.8 -49.6 318.7 -49.5 316.5 C-49.2 310.2 -49.2 310.2 -47 308 C-46.7 305.7 -46.7 305.7 -46.5 303 C-46.2 298.2 -46.2 298.2 -44 296 C-43.3 294.3 -42.6 292.7 -42 291 C-41 289 -40 287 -39 285 C-38.7 284.5 -38.7 284.5 -37.4 281.7 C-36 279 -36 279 -35 278 C-34.9 276.9 -34.8 275.9 -34.8 274.8 C-33.8 270.2 -32.3 269.1 -29 266 C-27.9 263.6 -27.9 263.6 -27 261 C-25 256.1 -22.3 253.2 -18.6 249.7 C-16.6 247.6 -15.8 245.7 -15 243 C-13.6 239.8 -12.5 237.4 -9.9 235.1 C-8 233 -8 233 -7.6 229.6 C-6.9 225.1 -5.1 224.1 -2 221 C-1.8 219.8 -1.7 218.7 -1.5 217.5 C-0.9 213.1 0.9 212.1 4 209 C4.7 205.3 4.7 205.3 5 202 C5.7 201.3 6.3 200.7 7 200 C7.7 198.3 8.4 196.7 9 195 C9.3 194.7 9.7 194.3 10 194 C10.3 191.5 10.4 188.9 10.6 186.3 C11 184 11 184 13 182 C13.2 180.8 13.3 179.7 13.5 178.5 C14 175 14 175 16 173 C16.3 170.3 16.4 167.7 16.5 165 C16.7 157.3 16.7 157.3 19 155 C19.3 152.5 19.3 152.5 19.3 149.4 C19.4 148.9 19.4 148.9 19.4 146 C19.4 145.5 19.4 145.5 19.5 142.5 C19.5 140.2 19.6 137.9 19.7 135.6 C19.7 134.6 19.7 133.5 19.7 132.5 C20 130 20 130 22 128 C22.2 125.4 22.3 123 22.3 120.4 C22.3 119.7 22.3 118.9 22.3 118.2 C22.3 116.6 22.3 115 22.3 113.4 C22.3 111 22.3 108.6 22.3 106.2 C22.3 104.6 22.3 103.1 22.3 101.6 C22.3 100.8 22.3 100.1 22.3 99.4 C22.2 94.2 22.2 94.2 20 92 C19.7 89.5 19.7 89.5 19.7 86.4 C19.6 85.3 19.6 84.2 19.6 83 C19.5 80.7 19.5 78.3 19.4 76 C19.4 74.9 19.4 73.7 19.3 72.6 C19.3 71.6 19.3 70.5 19.3 69.5 C19 67 19 67 17 65 C16.6 62.4 16.5 59.9 16.3 57.3 C16 55 16 55 14 53 C13.6 50.4 13.5 47.9 13.3 45.3 C13 43 13 43 11 41 C10.7 38.7 10.3 36.3 10 34 C9.3 33.3 8.7 32.7 8 32 C7.7 29.7 7.3 27.3 7 25 C6.3 24.3 5.7 23.7 5 23 C4.7 20.7 4.3 18.3 4 16 C3.3 15.3 2.7 14.7 2 14 C1.3 12.3 0.6 10.7 0 9 C-0.2 8.8 -0.2 8.8 -1 8 C-1.1 4.5 -1.1 4.5 -1 1 C-0.7 0.7 -0.3 0.3 0 0 Z M659 372 C659 374 659 376 659 378 C660 378 661 378 662 378 C662 376 662 374 662 372 C661 372 660 372 659 372 Z M237 378 C237 381 237 381 239 384 C240 384 241 384 242 384 C242 382.4 242 380.7 242 379 C240.4 378.7 238.7 378.3 237 378 Z M242 390 C242 391.6 242 393.3 242 395 C243 395.3 244 395.7 245 396 C245 394 245 392 245 390 C244 390 243 390 242 390 Z M656 390 C656 393 656 395.9 656 399 C657 399 658 399 659 399 C659 396 659 393.1 659 390 C658 390 657 390 656 390 Z " fill="#FFFFFF" transform="translate(106,30)"/>
	<path d="M0 0 C3 0 3 0 4.8 1.7 C5.1 2 5.1 2 6.6 3.9 C7.2 4.6 7.8 5.3 8.4 6.1 C8.9 6.7 9.4 7.3 10 8 C10.7 8.7 11.3 9.3 12 10 C12.3 10.8 12.6 11.6 12.9 12.4 C14.2 15.4 15.6 17 17.9 19.3 C18.7 20.1 19.5 20.9 20.3 21.8 C21.2 22.6 22.1 23.5 23 24.4 C23.9 25.3 24.8 26.2 25.7 27.1 C27.6 29 29.5 30.9 31.4 32.8 C33.8 35.2 36.2 37.6 38.7 40.1 C41 42.4 43.3 44.7 45.6 47 C46.5 47.9 47.3 48.8 48.2 49.7 C49 50.5 49.9 51.3 50.7 52.1 C51.4 52.8 52.1 53.5 52.9 54.2 C55.2 56.1 57.2 57 60 58 C61.3 59.3 62.7 60.7 64 62 C64.8 62.3 65.7 62.7 66.5 63 C69.4 64.2 70.8 65.8 73 68 C73.8 68.3 74.7 68.7 75.5 69 C78.4 70.2 79.8 71.8 82 74 C82.8 74.3 83.7 74.7 84.5 75 C87.4 76.2 88.8 77.8 91 80 C93.4 81.1 93.4 81.1 96 82 C98 83 100 84 102 85 C103 85.5 104 86 105 86.5 C106 87 107 87.5 108 88 C109.1 88.5 110.2 89.1 111.3 89.6 C114 91 114 91 115 92 C116.1 92.1 117.3 92.3 118.4 92.4 C122 93 122 93 124 95 C125.7 95.7 127.3 96.4 129 97 C129.3 97.3 129.7 97.7 130 98 C131.1 98.1 132.3 98.3 133.4 98.4 C137 99 137 99 139 101 C140.2 101.2 141.3 101.3 142.5 101.5 C146 102 146 102 148 104 C150.3 104.3 150.3 104.3 153 104.5 C157.8 104.8 157.8 104.8 160 107 C162.3 107.3 162.3 107.3 165 107.5 C169.8 107.8 169.8 107.8 172 110 C173.2 110.2 174.3 110.3 175.5 110.5 C179 111 179 111 181 113 C182.2 113.2 183.3 113.3 184.5 113.5 C188 114 188 114 190 116 C191.2 116.2 192.3 116.3 193.5 116.5 C197 117 197 117 199 119 C200.2 119.2 201.3 119.3 202.5 119.5 C206 120 206 120 208 122 C209.7 122.7 211.3 123.4 213 124 C215 125 217 126 219 127 C220.1 127.5 221.2 128.1 222.3 128.6 C225 130 225 130 226 131 C227.1 131.1 228.3 131.3 229.4 131.4 C233 132 233 132 235 134 C236.7 134.7 238.3 135.4 240 136 C242 137 244 138 246 139 C247 139.5 248 140 249 140.5 C254 143 259 145.5 264 148 C265 148.5 266.1 148.9 267.1 149.4 C270 151 271.7 152.7 274 155 C274.8 155.3 275.6 155.7 276.5 156 C279.4 157.2 280.8 158.8 283 161 C283.8 161.3 284.6 161.7 285.5 162 C288.4 163.2 289.8 164.8 292 167 C292.8 167.3 293.5 167.5 294.3 167.8 C297.1 169.1 298.4 170.3 300.5 172.5 C303.7 175.9 303.7 175.9 306.5 177 C309.9 178.4 311.7 180.7 314.2 183.3 C316 185 316 185 318.4 185.9 C322.7 187.7 325.4 191.3 328.5 194.7 C331 197 331 197 333.4 197.9 C336.3 199.1 337.7 200.4 339.8 202.6 C340.5 203.3 341.2 204 341.9 204.8 C343.3 206.3 344.7 207.7 346.1 209.2 C346.8 209.9 347.5 210.6 348.2 211.4 C348.8 212 349.4 212.7 350 213.3 C352 215 352 215 354.4 215.9 C357.7 217.3 359.5 219.1 362 221.6 C362.9 222.5 363.9 223.5 364.8 224.4 C365.3 224.9 365.8 225.4 366.2 225.8 C367.7 227.3 369.1 228.8 370.6 230.2 C371.5 231.1 372.4 232 373.4 233 C374.2 233.8 375.1 234.7 375.9 235.5 C378 238 378.9 240 380 243 C381.7 244.8 381.7 244.8 383.5 246.5 C386.4 249.3 387.5 251.3 389 255 C390.7 256.8 392.6 258.6 394.4 260.3 C396.3 262.4 397.1 264.4 398 267 C398.7 267.7 399.3 268.3 400 269 C402.3 271.3 402.9 273 404 276 C405.4 279.2 406.6 281.6 409.1 284.1 C411.3 286.3 411.9 288.1 413 291 C414 293 415 295 416 297 C417.6 300.1 419.1 303.2 420.6 306.3 C422 309 422 309 423 310 C423.1 311.1 423.3 312.3 423.4 313.4 C424 317 424 317 426 319 C426.7 320.7 427.4 322.3 428 324 C430.8 329.8 430.8 329.8 432 331 C432.1 332.1 432.3 333.3 432.4 334.4 C433 338 433 338 435 340 C435.3 342.3 435.7 344.7 436 347 C436.7 347.7 437.3 348.3 438 349 C438.3 351.3 438.7 353.7 439 356 C439.7 356.7 440.3 357.3 441 358 C441.3 360.3 441.7 362.7 442 365 C442.7 365.7 443.3 366.3 444 367 C444.3 369.3 444.7 371.7 445 374 C445.7 374.7 446.3 375.3 447 376 C447.3 378.3 447.7 380.7 448 383 C448.7 383.7 449.3 384.3 450 385 C450.4 387.6 450.5 390.1 450.7 392.7 C451 395 451 395 453 397 C453.4 400.3 453.5 403.7 453.7 407 C454 410 454 410 456 412 C456.4 414.6 456.5 417.1 456.7 419.7 C457 422 457 422 459 424 C459.3 427.4 459.5 430.8 459.6 434.2 C459.8 439.8 459.8 439.8 462 442 C462.4 445.3 462.5 448.7 462.7 452 C463 455 463 455 465 457 C465.1 458.1 465.2 459.2 465.3 460.3 C466.1 464.8 467.7 466 471 469 C471.3 469.8 471.6 470.5 471.8 471.3 C473.3 474.7 475.3 476.5 478 479 C481.5 482.3 483.2 484.6 485 489 C487.3 491.5 487.3 491.5 490 494 C493.5 497.2 495.4 499.5 497 504 C497.7 504.7 498.3 505.3 499 506 C501 508 501 508 501.8 510.3 C503.1 513.1 504.3 514.4 506.5 516.5 C509.3 519.2 510.7 521.3 512 525 C512.7 525.5 513.3 526.1 514 526.6 C516.8 530 516.5 533.2 516.4 537.4 C516.4 538.3 516.4 539.1 516.4 539.9 C516.4 541.6 516.4 543.3 516.4 545.1 C516.3 547.7 516.3 550.3 516.3 553 C516.3 554.6 516.3 556.3 516.2 557.9 C516.2 558.7 516.2 559.5 516.2 560.3 C516.1 565.9 516.1 565.9 515 567 C511.6 567.2 511.6 567.2 508 567 C507.3 566.3 506.7 565.7 506 565 C504.3 564.3 502.7 563.6 501 563 C496.8 561.1 494.2 559.2 491 556 C488.6 554.9 488.6 554.9 486 554 C481.2 552 478.2 549.5 474.8 545.6 C473 544 473 544 470.7 543.1 C467.6 541.8 465.9 540.3 463.6 538 C462.8 537.2 461.9 536.3 461.1 535.5 C460.6 535.1 460.6 535.1 458.4 532.8 C457.5 531.9 456.6 531 455.6 530 C453.7 528.1 451.7 526.1 449.8 524.2 C447.3 521.7 444.8 519.2 442.3 516.7 C440 514.4 437.6 512 435.2 509.6 C434.3 508.7 433.4 507.8 432.5 506.9 C431.7 506.1 430.9 505.3 430 504.4 C429.3 503.7 428.5 502.9 427.8 502.2 C425.9 499.9 425 497.8 424 495 C422.3 493.2 422.3 493.2 420.5 491.5 C417.6 488.7 416.5 486.7 415 483 C413.3 481.2 411.4 479.4 409.6 477.7 C407.7 475.6 406.9 473.6 406 471 C405.3 470.3 404.7 469.7 404 469 C401.7 466.7 401.1 465 400 462 C398.6 458.8 397.4 456.4 394.9 453.9 C392.7 451.7 392.1 449.9 391 447 C390.3 446.3 389.7 445.7 389 445 C386.8 442.8 386.2 440.9 385 438 C384.3 437.3 383.7 436.7 383 436 C381 434 381 434 380.2 431.7 C378.7 428.2 376.4 426.3 373.7 423.8 C372 422 372 422 371.1 419.6 C369.9 416.7 368.6 415.3 366.3 413.2 C365.6 412.5 364.9 411.8 364.1 411.1 C362.6 409.7 361.1 408.3 359.6 406.9 C358.9 406.2 358.2 405.5 357.4 404.8 C357.1 404.5 357.1 404.5 355.4 403 C353.6 400.5 353.7 399 354 396 C352 396 350 396 348 396 C348 394 348 392 348 390 C347.6 390 347.6 390 345.8 390.2 C342.2 389.9 341.4 388.9 339 386.4 C338.2 385.6 337.5 384.8 336.8 384.1 C336 383.3 335.3 382.5 334.5 381.6 C333 380 331.5 378.5 330 376.9 C329.4 376.2 328.7 375.5 328 374.8 C325.8 372.8 323.8 372 321 371 C318.4 368.6 316 365.9 313.5 363.3 C311 361 309.2 360.1 306 359 C304.7 357.7 303.3 356.3 302 355 C301.2 354.7 300.5 354.5 299.7 354.2 C296.2 352.7 294.3 350.3 291.7 347.6 C289.6 345.7 287.6 344.9 285 344 C283.7 342.7 282.3 341.3 281 340 C278.6 338.9 278.6 338.9 276 338 C274 337 272 336 270 335 C269.5 334.8 269.5 334.8 266.9 333.6 C264 332 262.3 330.3 260 328 C257.6 326.9 257.6 326.9 255 326 C253 325 251 324 249 323 C248.5 322.8 248.5 322.8 245.9 321.6 C243 320 243 320 241.1 317.9 C239 316 239 316 235.6 315.6 C231.1 314.9 230 313.2 227 310 C224.3 308.8 224.3 308.8 222 308 C221.7 307.7 221.3 307.3 221 307 C219.9 306.9 218.7 306.7 217.6 306.6 C214 306 214 306 212 304 C210.3 303.3 208.7 302.6 207 302 C206.7 301.7 206.3 301.3 206 301 C204.9 300.9 203.8 300.8 202.7 300.7 C199 300 199 300 196.5 298.2 C195 296 195 296 195.4 293.4 C195.6 292.6 195.8 291.8 196 291 C196.9 291 197.8 290.9 198.8 290.9 C199.4 290.8 199.4 290.8 202.4 290.6 C203.6 290.6 204.7 290.5 206 290.4 C209 290 209 290 211 288 C213.1 287.7 213.1 287.7 215.7 287.7 C216.7 287.7 217.6 287.7 218.6 287.7 C219.2 287.7 219.2 287.7 221.8 287.7 C222.4 287.7 222.4 287.7 225.1 287.7 C227.4 287.7 229.7 287.7 232 287.7 C235.5 287.7 239 287.7 242.5 287.7 C244.7 287.7 246.9 287.7 249.2 287.7 C250.2 287.7 251.3 287.7 252.4 287.7 C253.3 287.7 254.3 287.7 255.3 287.7 C256.2 287.7 257 287.7 257.9 287.7 C260 288 260 288 262 290 C264.7 290.3 267.3 290.4 270 290.5 C277.7 290.7 277.7 290.7 280 293 C282.7 293.3 285.4 293.5 288.1 293.6 C288.9 293.7 289.6 293.7 290.4 293.7 C292.3 293.8 294.1 293.9 296 294 C296.3 295 296.7 296 297 297 C298 297 299 297 300 297 C300 296 300 295 300 294 C299 293.7 298 293.3 297 293 C297 292.3 297 291.7 297 291 C294.9 289.9 292.8 288.9 290.6 288.1 C287.7 286.9 284.9 285.5 282 284 C281 283.5 280 283 279 282.5 C278 282 277 281.5 276 281 C275.5 280.7 275.5 280.7 272.7 279.4 C270 278 270 278 269 277 C267.9 276.9 266.7 276.7 265.6 276.6 C262 276 262 276 260 274 C258.3 273.3 256.7 272.6 255 272 C253 271 251 270 249 269 C247.9 268.5 246.8 267.9 245.7 267.4 C243 266 243 266 242 265 C240.9 264.9 239.7 264.7 238.6 264.6 C235 264 235 264 233 262 C231.3 261.3 229.7 260.6 228 260 C227.7 259.7 227.3 259.3 227 259 C225.9 258.9 224.7 258.7 223.6 258.6 C220 258 220 258 218 256 C216.3 255.3 214.7 254.6 213 254 C207.2 251.2 207.2 251.2 206 250 C203.5 249.7 200.9 249.6 198.3 249.4 C196 249 196 249 194 247 C192.3 246.3 190.7 245.6 189 245 C188.7 244.7 188.3 244.3 188 244 C186.9 243.9 185.7 243.7 184.6 243.6 C181 243 181 243 179 241 C177.3 240.3 175.7 239.6 174 239 C173.7 238.7 173.3 238.3 173 238 C171.9 237.9 170.7 237.7 169.6 237.6 C166 237 166 237 164 235 C162.3 234.3 160.7 233.6 159 233 C158.7 232.7 158.3 232.3 158 232 C155.5 231.7 152.9 231.6 150.3 231.4 C148 231 148 231 146 229 C144.3 228.3 142.7 227.6 141 227 C136.8 225.1 134.2 223.2 131 220 C128.6 218.9 128.6 218.9 126 218 C124 217 122 216 120 215 C119 214.6 118.1 214.2 117.1 213.8 C113.6 211.8 111.4 209.5 108.8 206.6 C107 205 107 205 104.7 204.2 C101.4 202.7 99.5 200.9 97 198.4 C96.1 197.5 95.1 196.5 94.2 195.6 C93.7 195.1 93.2 194.6 92.8 194.2 C91.3 192.7 89.9 191.2 88.4 189.8 C87.5 188.9 86.6 188 85.6 187 C84.8 186.2 83.9 185.3 83.1 184.5 C81 182 80.2 180 79 177 C77.3 175 77.3 175 75.4 173.2 C75 172.8 75 172.8 73.2 171.1 C72.5 170.4 71.8 169.7 71 169 C69.5 167.6 68.1 166.2 66.6 164.8 C66.3 164.5 66.3 164.5 64.7 163 C62.8 160.8 62 158.7 61 156 C60.7 155.7 60.7 155.7 59 154 C56.8 151.8 56.2 149.9 55 147 C54.7 146.7 54.7 146.7 53 145 C50.7 142.7 50.1 141 49 138 C48 136 47 134 46 132 C40 120 40 120 38.6 116.9 C37 114 37 114 34.9 112.1 C32.3 109.2 32.4 106.7 32 103 C31.3 102.3 30.7 101.7 30 101 C29.3 99.3 28.6 97.7 28 96 C25.2 90.2 25.2 90.2 24 89 C23.9 88.4 23.9 88.4 23.6 85.6 C23 82 23 82 21 80 C20.8 78.8 20.8 78.8 20 73 C19.3 72.3 18.7 71.7 18 71 C17.8 69.8 17.8 69.8 17 64 C16.3 63.3 15.7 62.7 15 62 C14.7 59.7 14.3 57.3 14 55 C13.3 54.3 12.7 53.7 12 53 C11.7 50.7 11.3 48.3 11 46 C10.3 45.3 9.7 44.7 9 44 C8.6 40.7 8.5 37.3 8.3 34 C8 31 8 31 6 29 C5.3 27.3 4.6 25.7 4 24 C3.7 23.7 3.3 23.3 3 23 C2.7 19.7 2.6 16.3 2.4 13 C2 10 2 10 0 8 C-0.3 5.3 -0.1 2.7 0 0 Z M102 192 C102 193 102 194 102 195 C104 195 106 195 108 195 C108 194 108 193 108 192 C106 192 104 192 102 192 Z M133 210 C132.7 211.6 132.3 213.3 132 215 C132.8 215.2 132.8 215.2 137 216 C137.3 214.4 137.7 212.7 138 211 C136.3 210.7 134.7 210.3 133 210 Z M208 294 C207.7 295 207.3 296 207 297 C210 297 212.9 297 216 297 C216 296 216 295 216 294 C213.4 294 210.7 294 208 294 Z M501 555 C501 556 501 557 501 558 C501.4 558.1 501.4 558.1 503.7 558.8 C507.1 560 509.3 561.6 512 564 C512.4 562.3 512.7 560.7 513 559 C512 558 512 558 509.4 557.9 C508.6 558 507.8 558 507 558 C507 557 507 556 507 555 C505 555 503 555 501 555 Z " fill="#FFFFFF" transform="translate(30,552)"/>
	<path d="M0 0 C1 0 2 0 3 0 C3.1 2.4 3.1 2.4 3 5 C2.3 5.7 1.7 6.3 1 7 C0.7 9.7 0.5 12.4 0.4 15.1 C0.3 15.9 0.3 16.6 0.3 17.4 C0.2 19.3 0.1 21.1 0 23 C-1 23.3 -2 23.7 -3 24 C-3 24.4 -3 24.4 -2.9 26.4 C-3 29 -3 29 -5 31 C-5.2 33.2 -5.4 35.3 -5.5 37.5 C-5.8 43.8 -5.8 43.8 -8 46 C-8.2 47.2 -8.3 48.3 -8.5 49.5 C-9 53 -9 53 -11 55 C-11.7 56.7 -12.4 58.3 -13 60 C-13.3 60.3 -13.7 60.7 -14 61 C-14.1 62.1 -14.3 63.3 -14.4 64.4 C-15 68 -15 68 -17 70 C-17.2 71.2 -17.3 72.3 -17.5 73.5 C-18 77 -18 77 -20 79 C-20.7 80.7 -21.4 82.3 -22 84 C-22.3 84.3 -22.7 84.7 -23 85 C-23.1 86.1 -23.3 87.3 -23.4 88.4 C-24 92 -24 92 -26 94 C-26.2 95.2 -26.3 96.3 -26.5 97.5 C-27 101 -27 101 -29 103 C-29.7 104.7 -30.4 106.3 -31 108 C-32.9 112.2 -34.8 114.8 -38 118 C-39.1 120.4 -39.1 120.4 -40 123 C-41 125 -42 127 -43 129 C-43.5 130 -44 131 -44.5 132 C-45 133 -45.5 134 -46 135 C-46.2 135.5 -46.2 135.5 -47.4 138.1 C-49 141 -50.7 142.7 -53 145 C-53.3 145.8 -53.7 146.6 -54 147.5 C-55.2 150.4 -56.8 151.8 -59 154 C-59.3 154.8 -59.5 155.5 -59.8 156.3 C-61.7 160.7 -65.3 163.3 -68.7 166.5 C-71 169 -71 169 -71.8 171.3 C-73.4 175 -76.1 177.5 -78.9 180.3 C-79.5 180.9 -80.1 181.5 -80.7 182.1 C-81.9 183.3 -83.2 184.6 -84.4 185.8 C-86.3 187.7 -88.2 189.6 -90.1 191.5 C-91.3 192.7 -92.5 193.9 -93.7 195.1 C-94.2 195.6 -94.8 196.2 -95.4 196.8 C-98.4 199.8 -101 201.7 -105 203 C-106.8 204.7 -106.8 204.7 -108.5 206.5 C-111.2 209.3 -113.2 210.8 -117 212 C-119 213 -121 214 -123 215 C-141 224 -141 224 -144.3 225.6 C-147 227 -147 227 -148 228 C-148.6 228.1 -148.6 228.1 -151.4 228.4 C-155 229 -155 229 -157 231 C-158.7 231.7 -160.3 232.4 -162 233 C-162.3 233.3 -162.7 233.7 -163 234 C-163.6 234.1 -163.6 234.1 -166.4 234.4 C-170 235 -170 235 -172 237 C-173.7 237.7 -175.3 238.4 -177 239 C-177.3 239.3 -177.7 239.7 -178 240 C-180.5 240.3 -183.1 240.4 -185.7 240.6 C-188 241 -188 241 -190 243 C-191.7 243.7 -193.3 244.4 -195 245 C-195.3 245.3 -195.7 245.7 -196 246 C-196.6 246.1 -196.6 246.1 -199.4 246.4 C-203 247 -203 247 -205 249 C-206.7 249.7 -208.3 250.4 -210 251 C-210.3 251.3 -210.7 251.7 -211 252 C-211.6 252.1 -211.6 252.1 -214.4 252.4 C-218 253 -218 253 -220 255 C-221.7 255.7 -223.3 256.4 -225 257 C-230.8 259.8 -230.8 259.8 -232 261 C-233.1 261.1 -234.3 261.3 -235.4 261.4 C-239 262 -239 262 -241 264 C-242.7 264.7 -244.3 265.4 -246 266 C-246.3 266.3 -246.7 266.7 -247 267 C-248.1 267.1 -249.3 267.3 -250.4 267.4 C-254 268 -254 268 -256 270 C-257.7 270.7 -259.3 271.4 -261 272 C-263 273 -265 274 -267 275 C-273 278 -279 281 -285 284 C-285.5 284.3 -285.5 284.3 -288.2 285.6 C-291 287 -291 287 -294 288 C-294.3 289 -294.7 290 -295 291 C-295.7 291 -296.3 291 -297 291 C-297 292 -297 293 -297 294 C-296 294 -295 294 -294 294 C-293.7 293 -293.3 292 -293 291 C-292.4 291 -291.9 291 -291.3 290.9 C-288.7 290.8 -286.2 290.7 -283.6 290.6 C-283.2 290.6 -283.2 290.6 -280.9 290.5 C-280.1 290.5 -279.2 290.5 -278.4 290.4 C-278 290.4 -278 290.4 -276 290.3 C-274 290 -274 290 -272 288 C-268.7 287.6 -265.3 287.5 -262 287.3 C-259 287 -259 287 -257 285 C-254.9 284.7 -254.9 284.7 -252.3 284.7 C-251.8 284.7 -251.8 284.7 -249.4 284.7 C-248.8 284.7 -248.8 284.7 -246.2 284.7 C-245.6 284.7 -245.6 284.7 -242.9 284.7 C-240.6 284.7 -238.3 284.7 -236 284.7 C-232.5 284.7 -229 284.7 -225.5 284.7 C-223.3 284.7 -221.1 284.7 -218.8 284.7 C-217.8 284.7 -216.7 284.7 -215.6 284.7 C-214.7 284.7 -213.7 284.7 -212.7 284.7 C-211.8 284.7 -211 284.7 -210.1 284.7 C-208 285 -208 285 -206 287 C-202.7 287.3 -199.5 287.4 -196.2 287.6 C-192.8 288 -191.3 288.6 -189 291 C-189 292 -189 293 -189 294 C-189.5 294.2 -189.5 294.2 -191.9 294.9 C-195 296 -195 296 -196 297 C-197.1 297.1 -198.3 297.3 -199.4 297.4 C-203 298 -203 298 -205 300 C-206.7 300.7 -208.3 301.4 -210 302 C-212 303 -214 304 -216 305 C-252 323 -252 323 -255.1 324.4 C-258 326 -258 326 -260.1 328.1 C-262.3 330.3 -264.1 330.9 -267 332 C-267.7 332.7 -268.3 333.3 -269 334 C-271.3 336.3 -273 336.9 -276 338 C-279.2 339.4 -281.6 340.6 -284.1 343.1 C-286.3 345.3 -288.1 345.9 -291 347 C-291.7 347.7 -292.3 348.3 -293 349 C-295 351 -295 351 -297.3 351.8 C-300.1 353.1 -301.4 354.3 -303.5 356.5 C-306.3 359.4 -308.3 360.5 -312 362 C-313.8 363.7 -315.5 365.5 -317.2 367.3 C-319 369 -319 369 -321.3 369.9 C-324.3 371.1 -326 372.6 -328.3 374.9 C-329.1 375.7 -329.9 376.5 -330.8 377.3 C-331.6 378.2 -332.5 379.1 -333.4 380 C-334.3 380.9 -335.2 381.8 -336.1 382.7 C-338 384.6 -339.9 386.5 -341.8 388.4 C-344.2 390.8 -346.6 393.2 -349.1 395.7 C-351.4 398 -353.7 400.3 -356 402.6 C-356.9 403.5 -357.8 404.3 -358.7 405.2 C-359.5 406 -360.3 406.9 -361.1 407.7 C-361.8 408.4 -362.5 409.1 -363.2 409.9 C-365.1 412.2 -366 414.2 -367 417 C-369.4 419.6 -372.1 422 -374.7 424.5 C-377 427 -377.9 428.8 -379 432 C-380.3 433.3 -381.7 434.7 -383 436 C-383.3 436.8 -383.7 437.6 -384 438.5 C-385.2 441.4 -386.8 442.8 -389 445 C-390.1 447.4 -390.1 447.4 -391 450 C-392 452 -393 454 -394 456 C-394.5 457 -394.9 458.1 -395.4 459.1 C-397 462 -398.7 463.7 -401 466 C-401.3 466.8 -401.5 467.5 -401.8 468.3 C-403.1 471.1 -404.3 472.4 -406.5 474.5 C-409.9 477.7 -409.9 477.7 -411 480.5 C-412.4 483.9 -414.7 485.7 -417.3 488.2 C-419 490 -419 490 -419.8 492.3 C-421.2 495.5 -422.8 497.1 -425.3 499.5 C-425.7 499.9 -425.7 499.9 -427.8 501.9 C-429.6 503.6 -431.4 505.4 -433.2 507.1 C-433.6 507.5 -433.6 507.5 -435.7 509.5 C-436.5 510.3 -437.3 511 -438.1 511.8 C-440.1 514.1 -441 516.1 -442 519 C-443.3 520.7 -443.3 520.7 -444.8 522.2 C-445.3 522.7 -445.8 523.2 -446.3 523.7 C-448 525 -448 525 -450.4 525.9 C-453.2 527.1 -454.7 528.4 -456.8 530.6 C-457.2 531 -457.2 531 -458.9 532.8 C-459.6 533.5 -460.3 534.2 -461 535 C-462.4 536.5 -463.8 537.9 -465.2 539.4 C-465.8 540 -466.4 540.7 -467 541.3 C-469.2 543.2 -471.3 544 -474 545 C-474.7 545.7 -475.3 546.3 -476 547 C-478.3 549.3 -480 549.9 -483 551 C-486.2 552.4 -488.6 553.6 -491.1 556.1 C-493.3 558.3 -495.1 558.9 -498 560 C-503.8 562.8 -503.8 562.8 -505 564 C-508.5 564.1 -508.5 564.1 -512 564 C-514.8 561.2 -513.3 551.4 -513.4 547.4 C-513.4 545.6 -513.4 543.9 -513.4 542.1 C-513.5 539.6 -513.5 537.1 -513.5 534.5 C-513.5 533.8 -513.6 533 -513.6 532.2 C-513.6 528.1 -513.3 526.3 -510.5 523.1 C-509.7 522.4 -508.9 521.7 -508 521 C-507.7 520.2 -507.3 519.3 -507 518.5 C-505.3 514.2 -501.6 511.6 -498.3 508.5 C-496 506 -495.2 504.2 -494 501 C-492.3 499.2 -492.3 499.2 -490.5 497.5 C-487.1 494.3 -487.1 494.3 -486 491.5 C-484.6 488.1 -482.2 486.2 -479.6 483.7 C-478 482 -478 482 -477 479.5 C-475.6 476.1 -473.3 474.2 -470.6 471.7 C-468.7 469.6 -467.9 467.6 -467 465 C-465.7 463.7 -464.3 462.3 -463 461 C-461.8 458.3 -461.8 458.3 -461 456 C-460.7 455.7 -460.3 455.3 -460 455 C-459.7 452.5 -459.6 449.9 -459.4 447.3 C-459 445 -459 445 -457 443 C-456.7 441.1 -456.7 441.1 -456.7 438.7 C-456.6 437.9 -456.6 437 -456.6 436.2 C-456.5 435.3 -456.5 434.4 -456.5 433.5 C-456.5 431.8 -456.4 430 -456.3 428.3 C-456.3 427.5 -456.3 426.7 -456.3 425.9 C-456 424 -456 424 -454 422 C-453.7 419.7 -453.7 419.7 -453.5 417 C-453.2 412.2 -453.2 412.2 -451 410 C-450.8 407.8 -450.6 405.7 -450.5 403.5 C-450.2 397.2 -450.2 397.2 -448 395 C-447.8 393.8 -447.7 392.7 -447.5 391.5 C-447 388 -447 388 -445 386 C-444.8 383.8 -444.6 381.7 -444.5 379.5 C-444.2 373.2 -444.2 373.2 -442 371 C-441.8 369.8 -441.7 368.7 -441.5 367.5 C-441 364 -441 364 -439 362 C-438.3 360.3 -437.6 358.7 -437 357 C-436.7 356.7 -436.3 356.3 -436 356 C-435.7 353.5 -435.6 350.9 -435.4 348.3 C-435 346 -435 346 -433 344 C-432.3 342.3 -431.6 340.7 -431 339 C-430.7 338.7 -430.3 338.3 -430 338 C-429.9 337.4 -429.9 337.4 -429.6 334.6 C-429 331 -429 331 -427 329 C-426.3 327.3 -425.6 325.7 -425 324 C-424.7 323.7 -424.3 323.3 -424 323 C-423.9 322.4 -423.9 322.4 -423.6 319.6 C-423 316 -423 316 -421 314 C-420.3 312.3 -419.6 310.7 -419 309 C-418 307 -417 305 -416 303 C-415.8 302.5 -415.8 302.5 -414.5 300 C-411 293 -407.5 286 -404 279 C-403.5 278 -403.1 276.9 -402.6 275.9 C-401 273 -399.3 271.3 -397 269 C-396.8 268.6 -396.8 268.6 -396 266.5 C-394.8 263.6 -393.2 262.2 -391 260 C-390.8 259.6 -390.8 259.6 -390 257.5 C-388.8 254.6 -387.2 253.2 -385 251 C-384.9 250.6 -384.9 250.6 -384.3 248.8 C-382.2 244.2 -378.3 241.2 -374.7 237.8 C-371.4 234.6 -369.7 232.3 -368 228 C-366.2 225.8 -364.2 223.8 -362.2 221.8 C-361.7 221.3 -361.1 220.7 -360.6 220.2 C-360.1 219.7 -359.6 219.2 -359 218.6 C-358.6 218.2 -358.1 217.7 -357.6 217.2 C-356 216 -356 216 -353.6 215.1 C-350.5 213.8 -348.9 212.1 -346.5 209.7 C-345.7 208.9 -344.9 208 -344.1 207.2 C-343.2 206.3 -342.4 205.4 -341.5 204.5 C-339.8 202.8 -338.2 201 -336.5 199.3 C-335.7 198.5 -335 197.7 -334.2 196.9 C-331.9 194.9 -329.9 194 -327 193 C-325.2 191.3 -325.2 191.3 -323.5 189.5 C-321.6 187.3 -320.3 186.1 -317.6 185.1 C-314.2 183.7 -312.5 181.7 -310 179 C-306.8 175.5 -304.5 173.6 -300 172 C-299.3 171.3 -298.7 170.7 -298 170 C-295.8 167.8 -293.9 167.2 -291 166 C-290.3 165.3 -289.7 164.7 -289 164 C-287 162 -287 162 -284.7 161.2 C-281.9 159.9 -280.6 158.7 -278.5 156.5 C-275.8 153.7 -273.8 152.2 -270 151 C-266.8 149.6 -264.4 148.4 -261.9 145.9 C-259.7 143.7 -257.9 143.1 -255 142 C-253 141 -251 140 -249 139 C-237 133 -237 133 -233.7 131.4 C-231 130 -231 130 -230 129 C-229.4 128.9 -229.4 128.9 -226.6 128.6 C-223 128 -223 128 -221 126 C-219.3 125.3 -217.7 124.6 -216 124 C-215.7 123.7 -215.3 123.3 -215 123 C-214.4 122.9 -214.4 122.9 -211.6 122.6 C-208 122 -208 122 -206 120 C-204.3 119.3 -202.7 118.6 -201 118 C-200.7 117.7 -200.3 117.3 -200 117 C-199.4 116.9 -199.4 116.9 -196.6 116.6 C-193 116 -193 116 -191 114 C-189.3 113.3 -187.7 112.6 -186 112 C-185.7 111.7 -185.3 111.3 -185 111 C-184.4 110.9 -184.4 110.9 -181.6 110.6 C-178 110 -178 110 -176 108 C-173.4 107.6 -170.9 107.5 -168.3 107.3 C-166 107 -166 107 -164 105 C-161.7 104.7 -159.3 104.3 -157 104 C-156.3 103.3 -155.7 102.7 -155 102 C-152.4 101.6 -149.9 101.5 -147.3 101.3 C-145 101 -145 101 -143 99 C-140.7 98.7 -138.3 98.3 -136 98 C-135.3 97.3 -134.7 96.7 -134 96 C-131.8 95.8 -131.8 95.8 -129.2 95.7 C-124.1 95.3 -122.5 93.8 -119 90 C-115.3 89.3 -115.3 89.3 -112 89 C-111.3 88.3 -110.7 87.7 -110 87 C-108.3 86.3 -106.7 85.6 -105 85 C-103 84 -101 83 -99 82 C-96 80.5 -93 79 -89.9 77.6 C-87 76 -87 76 -84.9 73.9 C-82.7 71.7 -80.9 71.1 -78 70 C-74.8 68.6 -72.4 67.4 -69.9 64.9 C-68 63 -68 63 -65.7 62.2 C-62.2 60.7 -60.3 58.4 -57.8 55.7 C-56 54 -56 54 -53.7 53.2 C-50.5 51.8 -48.9 50.2 -46.5 47.7 C-46.1 47.3 -46.1 47.3 -44.1 45.2 C-43.2 44.3 -42.4 43.4 -41.5 42.5 C-39.8 40.8 -38.2 39 -36.5 37.3 C-35.7 36.5 -35 35.7 -34.2 34.9 C-31.9 32.9 -29.9 32 -27 31 C-24.8 29.2 -24.8 29.2 -22.8 27.2 C-22.5 26.9 -22.5 26.9 -20.8 25.2 C-19 23 -19 23 -18.1 20.6 C-16.9 17.7 -15.6 16.2 -13.3 14.1 C-12.6 13.4 -11.9 12.7 -11.2 12 C-10.4 11.3 -9.7 10.5 -8.9 9.8 C-7.5 8.4 -6 7 -4.5 5.5 C-3.9 4.9 -3.2 4.3 -2.6 3.6 C-1 2 -1 2 0 0 Z M-6 15 C-6 16 -6 17 -6 18 C-5 18 -4 18 -3 18 C-3 17 -3 16 -3 15 C-4 15 -5 15 -6 15 Z M-88.7 178.3 C-90 180 -90 180 -90 183 C-87 183 -87 183 -85.3 181.7 C-84 180 -84 180 -84 177 C-87 177 -87 177 -88.7 178.3 Z M-129 210 C-129 211 -129 212 -129 213 C-128 213 -127 213 -126 213 C-126 212 -126 211 -126 210 C-127 210 -128 210 -129 210 Z M-153 222 C-153 223 -153 224 -153 225 C-152 225 -151 225 -150 225 C-150 224 -150 223 -150 222 C-151 222 -152 222 -153 222 Z M-510 558 C-510 559 -510 560 -510 561 C-509 561 -508 561 -507 561 C-506.4 560.2 -505.8 559.4 -505.1 558.6 C-503 556 -503 556 -500.2 555.2 C-499.5 555.1 -498.8 555.1 -498 555 C-498 554 -498 553 -498 552 C-503.3 551 -506.7 554.1 -510 558 Z " fill="#FFFFFF" transform="translate(1080,555)"/>
</svg>